<svg xmlns="http://www.w3.org/2000/svg" viewBox="0 0 853 659"><defs><style>.cls-1{fill:#e6e6e6;}.cls-10,.cls-11,.cls-14,.cls-15,.cls-2,.cls-7,.cls-8{font-size:21px;font-family:Arial-BoldMT, Arial;font-weight:700;}.cls-2,.cls-7{letter-spacing:-0.07em;}.cls-10,.cls-14,.cls-3{letter-spacing:-0.05em;}.cls-4{letter-spacing:-0.03em;}.cls-5,.cls-7{opacity:0.53;}.cls-6{fill:#ccc;}.cls-8{letter-spacing:-0.068em;}.cls-9{letter-spacing:-0.05em;}.cls-11,.cls-15{letter-spacing:-0.09em;}.cls-12{letter-spacing:-0.01em;}.cls-13{letter-spacing:-0.03em;}.cls-14,.cls-15{opacity:0.5;}.cls-16{fill:#fff;}.cls-17{opacity:0.6;}.cls-18,.cls-19,.cls-27{font-size:12px;}.cls-18,.cls-19{font-family:ArialMT, Arial;}.cls-18,.cls-21{letter-spacing:-0.03em;}.cls-19{letter-spacing:-0.122em;}.cls-20,.cls-27{letter-spacing:-0.03em;}.cls-22{opacity:0.3;}.cls-23{fill:#0c7bd1;}.cls-24{fill:#9e005d;}.cls-25{opacity:0.35;}.cls-26{letter-spacing:-0.085em;}.cls-27{font-family:FontAwesome;}</style></defs><g id="Layer_1" data-name="Layer 1"><rect class="cls-1" x="588" y="212" width="249" height="184"/><rect class="cls-1" x="114.103" width="232.897" height="659"/><path d="M860,204V418H9V204H860m1-1H8V419H861V203Z" transform="translate(-8 -7)"/><text class="cls-2" transform="translate(7.887 221.043)">P<tspan class="cls-3" x="12.537" y="0">r</tspan><tspan x="19.659" y="0">oj</tspan><tspan class="cls-3" x="35.381" y="0">e</tspan><tspan class="cls-4" x="46.011" y="0">c</tspan><tspan class="cls-3" x="57.06" y="0">t 1</tspan></text><g class="cls-5"><path d="M860,437V651H9V437H860m1-1H8V652H861V436Z" transform="translate(-8 -7)"/></g><rect class="cls-6" x="588" y="348" width="249" height="48"/><text class="cls-7" transform="translate(7.887 454.043)">P<tspan class="cls-3" x="12.537" y="0">r</tspan><tspan x="19.659" y="0">oj</tspan><tspan class="cls-3" x="35.381" y="0">e</tspan><tspan class="cls-4" x="46.011" y="0">c</tspan><tspan class="cls-3" x="57.06" y="0">t 2</tspan></text><text class="cls-8" transform="translate(124.223 37.043)">W<tspan class="cls-9" x="18.392" y="0">eb Users</tspan></text><text class="cls-10" transform="translate(598.12 239.043)">App Users</text><rect class="cls-1" x="360" y="212" width="214" height="184"/><text class="cls-11" transform="translate(370.12 239.043)">F<tspan class="cls-3" x="10.938" y="0">o</tspan><tspan class="cls-12" x="22.715" y="0">r</tspan><tspan class="cls-13" x="30.678" y="0">m</tspan><tspan class="cls-9" x="48.72" y="0">s</tspan></text><rect class="cls-1" x="588" y="446" width="249" height="184"/><text class="cls-14" transform="translate(598.12 473.043)">App Users</text><rect class="cls-1" x="360" y="446" width="214" height="184"/><text class="cls-15" transform="translate(370.12 473.043)">F<tspan class="cls-3" x="10.938" y="0">o</tspan><tspan class="cls-12" x="22.715" y="0">r</tspan><tspan class="cls-13" x="30.678" y="0">m</tspan><tspan class="cls-9" x="48.72" y="0">s</tspan></text><path d="M628.854,290.23H612.188c-2.284,0-4.158-2.322-4.158-5.171,0-5.133,1.269-11.066,6.382-11.066a8.718,8.718,0,0,0,12.217,0c5.113,0,6.382,5.933,6.382,11.066C633.011,287.908,631.137,290.23,628.854,290.23Zm-8.333-14.988a7.494,7.494,0,1,1,7.494-7.494A7.5,7.5,0,0,1,620.521,275.242Z" transform="translate(-8 -7)"/><circle class="cls-16" cx="623" cy="281.972" r="9"/><path d="M634.5,293.612a1.236,1.236,0,0,1-1.227,1.227h-4.906a1.235,1.235,0,0,1-1.226-1.227V283.8a1.235,1.235,0,0,1,1.226-1.227h4.906A1.236,1.236,0,0,1,634.5,283.8Zm-.92-8.279a.316.316,0,0,0-.307-.307h-4.906a.316.316,0,0,0-.307.307v6.746a.316.316,0,0,0,.307.307h4.906a.316.316,0,0,0,.307-.307Zm-1.993-1.533h-1.533a.153.153,0,1,0,0,.306h1.533a.153.153,0,0,0,0-.306Zm-.767,9.046a.767.767,0,1,0,.767.766A.767.767,0,0,0,630.822,292.846Z" transform="translate(-8 -7)"/><path d="M399.39,270.274h10.617v20.609a1.875,1.875,0,0,1-1.874,1.874H381.9a1.875,1.875,0,0,1-1.874-1.874V259.658a1.875,1.875,0,0,1,1.874-1.874h15.613V268.4A1.874,1.874,0,0,0,399.39,270.274Zm.625-11.709a4.145,4.145,0,0,1,.7.546l7.963,7.963a4.145,4.145,0,0,1,.546.7h-9.211Z" transform="translate(-8 -7)"/><path d="M155.854,86.259H139.187c-2.283,0-4.157-2.322-4.157-5.172,0-5.133,1.269-11.066,6.382-11.066a8.715,8.715,0,0,0,12.217,0c5.113,0,6.382,5.933,6.382,11.066C160.011,83.937,158.137,86.259,155.854,86.259Zm-8.333-14.988a7.495,7.495,0,1,1,7.494-7.495A7.5,7.5,0,0,1,147.521,71.271Z" transform="translate(-8 -7)"/><circle class="cls-16" cx="150" cy="78" r="9"/><path d="M165.355,84.9A7.36,7.36,0,1,1,158,77.536,7.361,7.361,0,0,1,165.355,84.9ZM160.4,82.71c.048-.009.1-.182.124-.22a.644.644,0,0,1,.211-.144,2.233,2.233,0,0,1,.5-.115.484.484,0,0,1,.488.105c-.028-.028.2-.23.231-.239.086-.048.229-.029.287-.115a.909.909,0,0,0,.019-.211c-.163.02-.22-.134-.23-.268a.221.221,0,0,1-.058.077c.01-.144-.172-.039-.239-.058-.221-.058-.191-.211-.259-.374-.038-.086-.143-.115-.182-.2-.039-.057-.057-.182-.144-.192-.058-.009-.162.2-.182.192-.086-.048-.125.019-.191.057s-.106.02-.163.048c.172-.057-.077-.153-.163-.134.134-.038.067-.182-.01-.249h.048c-.019-.086-.287-.163-.373-.22a1.236,1.236,0,0,0-.643-.1c-.115.067.029.259.029.355.009.114-.115.143-.115.239,0,.163.307.134.23.355-.048.134-.23.162-.307.268s.01.268.087.335-.135.154-.163.173c-.163.076-.288-.163-.326-.307-.029-.105-.038-.23-.154-.287-.057-.02-.239-.048-.277.009-.058-.143-.259-.2-.393-.249a1.092,1.092,0,0,0-.556-.038c.067-.01-.019-.307-.182-.259a1.059,1.059,0,0,0,.048-.3.543.543,0,0,1,.115-.22c.019-.039.23-.259.162-.269a.545.545,0,0,0,.48-.105c.086-.086.125-.23.211-.326.124-.144.277.039.412.048.191.01.182-.2.076-.3.125.01.02-.221-.048-.249-.086-.029-.412.057-.239.124-.038-.019-.269.46-.4.221-.038-.048-.058-.249-.144-.259s-.125.086-.153.144c.048-.125-.269-.211-.336-.221.143-.095.029-.2-.076-.259-.077-.047-.317-.086-.384-.009-.182.22.191.249.288.307.028.019.144.086.076.134-.057.028-.229.077-.249.115-.057.086.068.182-.019.268-.086-.086-.086-.23-.154-.326.087.106-.344.048-.335.048-.143,0-.374.1-.479-.048-.019-.038-.019-.259.038-.211-.086-.067-.144-.134-.2-.172a5.8,5.8,0,0,0-.9.393.16.16,0,0,0,.116-.01,2.447,2.447,0,0,0,.22-.115c.1-.038.3-.153.4-.067.008-.019.038-.038.048-.048a2.645,2.645,0,0,1,.191.24.578.578,0,0,0-.287-.01c-.068.02-.183.039-.211.115.028.048.066.125.048.173-.125-.087-.221-.23-.394-.249a1.5,1.5,0,0,0-.21.009,6.236,6.236,0,0,0-2.252,2.127.262.262,0,0,0,.115.077c.1.029,0,.307.182.163a.133.133,0,0,1,.028.182c.01-.009.394.24.422.259.068.057.173.125.2.2a.167.167,0,0,1-.095.173c-.01-.019-.154-.163-.173-.125s0,.307.1.3c-.153.01-.086.6-.124.719,0,.01.019.01.019.01-.028.114.067.565.259.517-.124.028.22.469.268.5a1.253,1.253,0,0,1,.355.268c.095.135.095.336.23.441-.039.115.2.249.192.412-.02.01-.03.01-.048.019.048.135.229.135.3.259.038.077,0,.259.125.221a1.068,1.068,0,0,0-.231-.594c-.057-.1-.115-.183-.163-.278a2.493,2.493,0,0,1-.1-.288c.038.009.249.087.231.115-.077.192.307.527.411.652.029.029.25.316.135.316.124,0,.3.192.354.287a2.613,2.613,0,0,1,.124.479c.058.192.326.279.48.365a3.545,3.545,0,0,0,.384.21c.2.077.249.01.42-.019.249-.038.279.24.48.345a.8.8,0,0,0,.527.106c-.057.019.2.412.22.441.087.114.249.172.346.287a.152.152,0,0,0,.066-.086c-.038.105.144.306.24.287s.134-.23.134-.306a.336.336,0,0,1-.47-.173c-.018-.048-.171-.316-.038-.316.182,0,.058-.144.038-.278s-.153-.221-.219-.335c-.058.114-.25.086-.307-.01,0,.029-.029.077-.029.115a.37.37,0,0,1-.144-.01c.019-.114.029-.258.058-.383.048-.172.364-.508-.048-.489a.249.249,0,0,0-.249.192c-.049.115-.029.22-.163.278a.841.841,0,0,1-.46-.029.852.852,0,0,1-.307-.632c-.009-.259.124-.489,0-.729.058-.048.116-.143.182-.191s.125.029.153-.087a.758.758,0,0,0-.076-.057c.144.067.412-.1.536,0,.077.057.163.077.211-.019.01-.029-.067-.144-.028-.22.028.162.134.191.277.086.058.057.211.038.317.1s.125.172.249.028a.518.518,0,0,1,.115.231c.028.105.086.373.181.421.2.124.154-.211.135-.326-.01-.01-.01-.326-.019-.326-.307-.067-.192-.307-.02-.469a2.218,2.218,0,0,0,.346-.173c.086-.076.191-.21.143-.335a.125.125,0,0,0,.106-.086c-.029-.01-.144-.106-.163-.1.067-.039.057-.1.019-.153.1-.058.048-.164.144-.2.1.144.316-.019.211-.134.1-.134.315-.067.373-.192.144.039.039-.143.115-.249.067-.086.183-.086.269-.134,0,.01.239-.134.163-.144.163.019.488-.153.239-.3.038-.086-.086-.124-.173-.144.068-.019.153.02.211-.019.125-.086.038-.124-.066-.153a.579.579,0,0,0-.412.115C160.544,82.585,160.5,82.691,160.4,82.71Zm2.021,6.411c-.057-.058-.162-.038-.239-.077a1.336,1.336,0,0,0-.229-.076c.018-.192-.193-.259-.327-.355s-.2-.2-.383-.163c-.019.009-.21.077-.172.115a.805.805,0,0,0-.345-.211c-.153-.048-.259-.239-.412-.067-.077.077-.039.192-.077.269-.124-.106.115-.23.019-.346-.115-.133-.316.087-.412.144-.057.048-.125.067-.163.125a2.2,2.2,0,0,0-.1.22c-.029-.076-.192-.057-.2-.115.039.23.039.47.086.7a.538.538,0,0,1-.114.46c-.115.105-.259.22-.278.383-.02.115.01.221.115.249.01.144-.153.249-.143.4a1.417,1.417,0,0,0,.018.153A6.075,6.075,0,0,0,162.422,89.121Z" transform="translate(-8 -7)"/><g class="cls-17"><path d="M628.854,334.259H612.188c-2.284,0-4.158-2.322-4.158-5.172,0-5.133,1.269-11.066,6.382-11.066a8.715,8.715,0,0,0,12.217,0c5.113,0,6.382,5.933,6.382,11.066C633.011,331.937,631.137,334.259,628.854,334.259Zm-8.333-14.988a7.495,7.495,0,1,1,7.494-7.5A7.5,7.5,0,0,1,620.521,319.271Z" transform="translate(-8 -7)"/></g><circle class="cls-16" cx="623" cy="326" r="9"/><g class="cls-17"><path d="M634.5,337.641a1.235,1.235,0,0,1-1.227,1.226h-4.906a1.234,1.234,0,0,1-1.226-1.226v-9.813a1.234,1.234,0,0,1,1.226-1.226h4.906a1.235,1.235,0,0,1,1.227,1.226Zm-.92-8.28a.315.315,0,0,0-.307-.306h-4.906a.315.315,0,0,0-.307.306v6.746a.315.315,0,0,0,.307.307h4.906a.315.315,0,0,0,.307-.307Zm-1.993-1.533h-1.533a.154.154,0,1,0,0,.307h1.533a.154.154,0,0,0,0-.307Zm-.767,9.046a.767.767,0,1,0,.767.767A.768.768,0,0,0,630.822,336.874Z" transform="translate(-8 -7)"/></g><path d="M818.574,377.443H805.713V364.582h12.861Zm0,15.434H805.713V380.016h12.861ZM816,374.871v-7.717h-7.717v7.717Zm0,15.414v-7.7h-7.717v7.7ZM813.43,372.3h-2.573v-2.572h2.573Zm0,15.433h-2.573V385.16h2.573Zm20.578-10.289H821.146V364.582h12.862Zm0,10.289h-7.717V385.16h-2.572v7.717h-2.573V380.016h7.717v2.572h2.573v-2.572h2.572Zm-2.572-12.861v-7.717h-7.717v7.717Zm-2.573-2.572h-2.572v-2.572h2.572Zm0,20.578h-2.572v-2.572h2.572Zm5.145,0h-2.572v-2.572h2.572Z" transform="translate(-8 -7)"/><text class="cls-18" transform="translate(600.379 375.984)">Use given QR code for device login</text><text class="cls-18" transform="translate(639.379 273.984)">Collect data on mobile devices</text><text class="cls-19" transform="translate(409.379 266.984)">Y<tspan class="cls-20" x="6.542" y="0">ou can test Forms before use</tspan><tspan class="cls-21"><tspan x="0" y="14.4">using a Draft</tspan></tspan></text><g class="cls-17"><path d="M399.39,317.274h10.617v20.609a1.875,1.875,0,0,1-1.874,1.874H381.9a1.875,1.875,0,0,1-1.874-1.874V306.658a1.875,1.875,0,0,1,1.874-1.874h15.613V315.4A1.874,1.874,0,0,0,399.39,317.274Zm.625-11.709a4.145,4.145,0,0,1,.7.546l7.963,7.963a4.145,4.145,0,0,1,.546.7h-9.211Z" transform="translate(-8 -7)"/></g><text class="cls-18" transform="translate(409.379 312.984)">Uploads are saved as<tspan x="0" y="14.4">Submissions</tspan></text><g class="cls-22"><path d="M399.39,365.274h10.617v20.609a1.875,1.875,0,0,1-1.874,1.874H381.9a1.875,1.875,0,0,1-1.874-1.874V354.658a1.875,1.875,0,0,1,1.874-1.874h15.613V363.4A1.874,1.874,0,0,0,399.39,365.274Zm.625-11.709a4.145,4.145,0,0,1,.7.546l7.963,7.963a4.145,4.145,0,0,1,.546.7h-9.211Z" transform="translate(-8 -7)"/></g><text class="cls-18" transform="translate(409.379 360.984)">Access data by download<tspan x="0" y="14.4">or via </tspan><tspan class="cls-23" x="30.158" y="14.4">live connection</tspan></text><text class="cls-18" transform="translate(164.379 70.984)">Use Central through this website</text><path class="cls-24" d="M155.854,131.259H139.187c-2.283,0-4.157-2.322-4.157-5.172,0-5.133,1.269-11.066,6.382-11.066a8.715,8.715,0,0,0,12.217,0c5.113,0,6.382,5.933,6.382,11.066C160.011,128.937,158.137,131.259,155.854,131.259Zm-8.333-14.988a7.495,7.495,0,1,1,7.494-7.5A7.5,7.5,0,0,1,147.521,116.271Z" transform="translate(-8 -7)"/><circle class="cls-16" cx="150" cy="123" r="9"/><path d="M165.355,129.9A7.36,7.36,0,1,1,158,122.536,7.361,7.361,0,0,1,165.355,129.9ZM160.4,127.71c.048-.009.1-.182.124-.22a.644.644,0,0,1,.211-.144,2.233,2.233,0,0,1,.5-.115.484.484,0,0,1,.488.105c-.028-.028.2-.23.231-.239.086-.048.229-.029.287-.115a.909.909,0,0,0,.019-.211c-.163.02-.22-.134-.23-.268a.221.221,0,0,1-.058.077c.01-.144-.172-.039-.239-.058-.221-.058-.191-.211-.259-.374-.038-.086-.143-.115-.182-.2-.039-.057-.057-.182-.144-.192-.058-.009-.162.2-.182.192-.086-.048-.125.019-.191.057s-.106.02-.163.048c.172-.057-.077-.153-.163-.134.134-.038.067-.182-.01-.249h.048c-.019-.086-.287-.163-.373-.22a1.236,1.236,0,0,0-.643-.1c-.115.067.029.259.029.355.009.114-.115.143-.115.239,0,.163.307.134.23.355-.048.134-.23.162-.307.268s.01.268.087.335-.135.154-.163.173c-.163.076-.288-.163-.326-.307-.029-.105-.038-.23-.154-.287-.057-.02-.239-.048-.277.009-.058-.143-.259-.2-.393-.249a1.092,1.092,0,0,0-.556-.038c.067-.01-.019-.307-.182-.259a1.059,1.059,0,0,0,.048-.3.543.543,0,0,1,.115-.22c.019-.039.23-.259.162-.269a.545.545,0,0,0,.48-.105c.086-.086.125-.23.211-.326.124-.144.277.039.412.048.191.01.182-.2.076-.3.125.01.02-.221-.048-.249-.086-.029-.412.057-.239.124-.038-.019-.269.46-.4.221-.038-.048-.058-.249-.144-.259s-.125.086-.153.144c.048-.125-.269-.211-.336-.221.143-.095.029-.2-.076-.259-.077-.047-.317-.086-.384-.009-.182.22.191.249.288.307.028.019.144.086.076.134-.057.028-.229.077-.249.115-.057.086.068.182-.019.268-.086-.086-.086-.23-.154-.326.087.106-.344.048-.335.048-.143,0-.374.1-.479-.048-.019-.038-.019-.259.038-.211-.086-.067-.144-.134-.2-.172a5.8,5.8,0,0,0-.9.393.16.16,0,0,0,.116-.01,2.447,2.447,0,0,0,.22-.115c.1-.038.3-.153.4-.067.008-.019.038-.038.048-.048a2.645,2.645,0,0,1,.191.24.578.578,0,0,0-.287-.01c-.068.02-.183.039-.211.115.028.048.066.125.048.173-.125-.087-.221-.23-.394-.249a1.5,1.5,0,0,0-.21.009,6.236,6.236,0,0,0-2.252,2.127.262.262,0,0,0,.115.077c.1.029,0,.307.182.163a.133.133,0,0,1,.028.182c.01-.009.394.24.422.259.068.057.173.125.2.2a.167.167,0,0,1-.095.173c-.01-.019-.154-.163-.173-.125s0,.307.1.3c-.153.01-.086.6-.124.719,0,.01.019.01.019.01-.028.114.067.565.259.517-.124.028.22.469.268.5a1.253,1.253,0,0,1,.355.268c.095.135.095.336.23.441-.039.115.2.249.192.412-.02.01-.03.01-.048.019.048.135.229.135.3.259.038.077,0,.259.125.221a1.068,1.068,0,0,0-.231-.594c-.057-.1-.115-.183-.163-.278a2.493,2.493,0,0,1-.1-.288c.038.009.249.087.231.115-.077.192.307.527.411.652.029.029.25.316.135.316.124,0,.3.192.354.287a2.613,2.613,0,0,1,.124.479c.058.192.326.279.48.365a3.545,3.545,0,0,0,.384.21c.2.077.249.01.42-.019.249-.038.279.24.48.345a.8.8,0,0,0,.527.106c-.057.019.2.412.22.441.087.114.249.172.346.287a.152.152,0,0,0,.066-.086c-.038.105.144.306.24.287s.134-.23.134-.306a.336.336,0,0,1-.47-.173c-.018-.048-.171-.316-.038-.316.182,0,.058-.144.038-.278s-.153-.221-.219-.335c-.058.114-.25.086-.307-.01,0,.029-.029.077-.029.115a.37.37,0,0,1-.144-.01c.019-.114.029-.258.058-.383.048-.172.364-.508-.048-.489a.249.249,0,0,0-.249.192c-.049.115-.029.22-.163.278a.841.841,0,0,1-.46-.029.852.852,0,0,1-.307-.632c-.009-.259.124-.489,0-.729.058-.048.116-.143.182-.191s.125.029.153-.087a.758.758,0,0,0-.076-.057c.144.067.412-.1.536,0,.077.057.163.077.211-.019.01-.029-.067-.144-.028-.22.028.162.134.191.277.086.058.057.211.038.317.1s.125.172.249.028a.518.518,0,0,1,.115.231c.028.105.086.373.181.421.2.124.154-.211.135-.326-.01-.01-.01-.326-.019-.326-.307-.067-.192-.307-.02-.469a2.218,2.218,0,0,0,.346-.173c.086-.076.191-.21.143-.335a.125.125,0,0,0,.106-.086c-.029-.01-.144-.106-.163-.1.067-.039.057-.1.019-.153.1-.058.048-.164.144-.2.1.144.316-.019.211-.134.1-.134.315-.067.373-.192.144.039.039-.143.115-.249.067-.086.183-.086.269-.134,0,.01.239-.134.163-.144.163.019.488-.153.239-.3.038-.086-.086-.124-.173-.144.068-.019.153.02.211-.019.125-.086.038-.124-.066-.153a.579.579,0,0,0-.412.115C160.544,127.585,160.5,127.691,160.4,127.71Zm2.021,6.411c-.057-.058-.162-.038-.239-.077a1.336,1.336,0,0,0-.229-.076c.018-.192-.193-.259-.327-.355s-.2-.2-.383-.163c-.019.009-.21.077-.172.115a.805.805,0,0,0-.345-.211c-.153-.048-.259-.239-.412-.067-.077.077-.039.192-.077.269-.124-.106.115-.23.019-.346-.115-.133-.316.087-.412.144-.057.048-.125.067-.163.125a2.2,2.2,0,0,0-.1.22c-.029-.076-.192-.057-.2-.115.039.23.039.47.086.7a.538.538,0,0,1-.114.46c-.115.1-.259.22-.278.383-.02.115.01.221.115.249.01.144-.153.249-.143.4a1.417,1.417,0,0,0,.018.153A6.075,6.075,0,0,0,162.422,134.121Z" transform="translate(-8 -7)"/><text class="cls-18" transform="translate(164.379 107.984)">Administrators are allowed to<tspan x="0" y="14.4">perform any action anywhere</tspan></text><path d="M155.854,178.259H139.187c-2.283,0-4.157-2.322-4.157-5.172,0-5.133,1.269-11.066,6.382-11.066a8.715,8.715,0,0,0,12.217,0c5.113,0,6.382,5.933,6.382,11.066C160.011,175.937,158.137,178.259,155.854,178.259Zm-8.333-14.988a7.495,7.495,0,1,1,7.494-7.495A7.5,7.5,0,0,1,147.521,163.271Z" transform="translate(-8 -7)"/><circle class="cls-16" cx="150" cy="170" r="9"/><path d="M165.355,176.9A7.36,7.36,0,1,1,158,169.536,7.361,7.361,0,0,1,165.355,176.9ZM160.4,174.71c.048-.009.1-.182.124-.22a.644.644,0,0,1,.211-.144,2.233,2.233,0,0,1,.5-.115.484.484,0,0,1,.488.105c-.028-.028.2-.23.231-.239.086-.048.229-.029.287-.115a.909.909,0,0,0,.019-.211c-.163.02-.22-.134-.23-.268a.221.221,0,0,1-.058.077c.01-.144-.172-.039-.239-.058-.221-.058-.191-.211-.259-.374-.038-.086-.143-.115-.182-.2-.039-.057-.057-.182-.144-.192-.058-.009-.162.2-.182.192-.086-.048-.125.019-.191.057s-.106.02-.163.048c.172-.057-.077-.153-.163-.134.134-.038.067-.182-.01-.249h.048c-.019-.086-.287-.163-.373-.22a1.236,1.236,0,0,0-.643-.1c-.115.067.029.259.029.355.009.114-.115.143-.115.239,0,.163.307.134.23.355-.048.134-.23.162-.307.268s.01.268.087.335-.135.154-.163.173c-.163.076-.288-.163-.326-.307-.029-.1-.038-.23-.154-.287-.057-.02-.239-.048-.277.009-.058-.143-.259-.2-.393-.249a1.092,1.092,0,0,0-.556-.038c.067-.01-.019-.307-.182-.259a1.059,1.059,0,0,0,.048-.3.543.543,0,0,1,.115-.22c.019-.039.23-.259.162-.269a.545.545,0,0,0,.48-.1c.086-.086.125-.23.211-.326.124-.144.277.039.412.048.191.01.182-.2.076-.3.125.01.02-.221-.048-.249-.086-.029-.412.057-.239.124-.038-.019-.269.46-.4.221-.038-.048-.058-.249-.144-.259s-.125.086-.153.144c.048-.125-.269-.211-.336-.221.143-.1.029-.2-.076-.259-.077-.047-.317-.086-.384-.009-.182.22.191.249.288.307.028.019.144.086.076.134-.057.028-.229.077-.249.115-.057.086.068.182-.019.268-.086-.086-.086-.23-.154-.326.087.106-.344.048-.335.048-.143,0-.374.1-.479-.048-.019-.038-.019-.259.038-.211-.086-.067-.144-.134-.2-.172a5.8,5.8,0,0,0-.9.393.16.16,0,0,0,.116-.01,2.447,2.447,0,0,0,.22-.115c.1-.038.3-.153.4-.067.008-.019.038-.038.048-.048a2.645,2.645,0,0,1,.191.24.578.578,0,0,0-.287-.01c-.068.02-.183.039-.211.115.028.048.066.125.048.173-.125-.087-.221-.23-.394-.249a1.5,1.5,0,0,0-.21.009,6.236,6.236,0,0,0-2.252,2.127.262.262,0,0,0,.115.077c.1.029,0,.307.182.163a.133.133,0,0,1,.028.182c.01-.009.394.24.422.259.068.057.173.125.2.2a.167.167,0,0,1-.095.173c-.01-.019-.154-.163-.173-.125s0,.307.1.3c-.153.01-.086.6-.124.719,0,.01.019.01.019.01-.028.114.067.565.259.517-.124.028.22.469.268.5a1.253,1.253,0,0,1,.355.268c.095.135.095.336.23.441-.039.115.2.249.192.412-.02.01-.03.01-.048.019.048.135.229.135.3.259.038.077,0,.259.125.221a1.068,1.068,0,0,0-.231-.594c-.057-.1-.115-.183-.163-.278a2.493,2.493,0,0,1-.1-.288c.038.009.249.087.231.115-.077.192.307.527.411.652.029.029.25.316.135.316.124,0,.3.192.354.287a2.613,2.613,0,0,1,.124.479c.058.192.326.279.48.365a3.545,3.545,0,0,0,.384.21c.2.077.249.01.42-.019.249-.038.279.24.48.345a.8.8,0,0,0,.527.106c-.057.019.2.412.22.441.087.114.249.172.346.287a.152.152,0,0,0,.066-.086c-.038.105.144.306.24.287s.134-.23.134-.306a.336.336,0,0,1-.47-.173c-.018-.048-.171-.316-.038-.316.182,0,.058-.144.038-.278s-.153-.221-.219-.335c-.058.114-.25.086-.307-.01,0,.029-.029.077-.029.115a.37.37,0,0,1-.144-.01c.019-.114.029-.258.058-.383.048-.172.364-.508-.048-.489a.249.249,0,0,0-.249.192c-.049.115-.029.22-.163.278a.841.841,0,0,1-.46-.029.852.852,0,0,1-.307-.632c-.009-.259.124-.489,0-.729.058-.048.116-.143.182-.191s.125.029.153-.087a.758.758,0,0,0-.076-.057c.144.067.412-.1.536,0,.077.057.163.077.211-.019.01-.029-.067-.144-.028-.22.028.162.134.191.277.086.058.057.211.038.317.1s.125.172.249.028a.518.518,0,0,1,.115.231c.028.105.086.373.181.421.2.124.154-.211.135-.326-.01-.01-.01-.326-.019-.326-.307-.067-.192-.307-.02-.469a2.218,2.218,0,0,0,.346-.173c.086-.076.191-.21.143-.335a.125.125,0,0,0,.106-.086c-.029-.01-.144-.106-.163-.1.067-.039.057-.1.019-.153.1-.058.048-.164.144-.2.1.144.316-.019.211-.134.1-.134.315-.067.373-.192.144.039.039-.143.115-.249.067-.086.183-.086.269-.134,0,.01.239-.134.163-.144.163.019.488-.153.239-.3.038-.086-.086-.124-.173-.144.068-.019.153.02.211-.019.125-.086.038-.124-.066-.153a.579.579,0,0,0-.412.115C160.544,174.585,160.5,174.691,160.4,174.71Zm2.021,6.411c-.057-.058-.162-.038-.239-.077a1.336,1.336,0,0,0-.229-.076c.018-.192-.193-.259-.327-.355s-.2-.2-.383-.163c-.019.009-.21.077-.172.115a.805.805,0,0,0-.345-.211c-.153-.048-.259-.239-.412-.067-.077.077-.039.192-.077.269-.124-.106.115-.23.019-.346-.115-.133-.316.087-.412.144-.057.048-.125.067-.163.125a2.2,2.2,0,0,0-.1.22c-.029-.076-.192-.057-.2-.115.039.23.039.47.086.7a.538.538,0,0,1-.114.46c-.115.1-.259.22-.278.383-.02.115.01.221.115.249.01.144-.153.249-.143.4a1.417,1.417,0,0,0,.018.153A6.075,6.075,0,0,0,162.422,181.121Z" transform="translate(-8 -7)"/><text class="cls-18" transform="translate(164.379 154.984)">Otherwise, users can be assigned<tspan x="0" y="14.4">specific roles on each Project:</tspan></text><path d="M164.007,266.478c0,4.02-2.986,7.279-6.655,7.279H140.685c-3.669,0-6.655-3.259-6.655-7.279,0-8.88,3.786-11.593,6.538-12.393a9.882,9.882,0,0,1-1.542-5.309,9.993,9.993,0,0,1,19.985,0,9.882,9.882,0,0,1-1.542,5.309C160.221,254.885,164.007,257.6,164.007,266.478Zm-2.5,0c0-6.148-2.069-9.993-5.933-10.188a9.913,9.913,0,0,1-13.115,0c-3.864.195-5.933,4.04-5.933,10.188,0,2.653,1.874,4.781,4.157,4.781h16.667C159.635,271.259,161.509,269.131,161.509,266.478Zm-19.985-17.7a7.495,7.495,0,1,0,7.5-7.494A7.5,7.5,0,0,0,141.524,248.776Z" transform="translate(-8 -7)"/><g class="cls-17"><path d="M164.007,326.478c0,4.02-2.986,7.279-6.655,7.279H140.685c-3.669,0-6.655-3.259-6.655-7.279,0-8.88,3.786-11.593,6.538-12.393a9.882,9.882,0,0,1-1.542-5.309,9.993,9.993,0,0,1,19.985,0,9.882,9.882,0,0,1-1.542,5.309C160.221,314.885,164.007,317.6,164.007,326.478Zm-2.5,0c0-6.148-2.069-9.993-5.933-10.188a9.913,9.913,0,0,1-13.115,0c-3.864.195-5.933,4.04-5.933,10.188,0,2.653,1.874,4.781,4.157,4.781h16.667C159.635,331.259,161.509,329.131,161.509,326.478Zm-19.985-17.7a7.495,7.495,0,1,0,7.5-7.494A7.5,7.5,0,0,0,141.524,308.776Z" transform="translate(-8 -7)"/></g><g class="cls-22"><path d="M164.007,381.478c0,4.02-2.986,7.279-6.655,7.279H140.685c-3.669,0-6.655-3.259-6.655-7.279,0-8.88,3.786-11.593,6.538-12.393a9.882,9.882,0,0,1-1.542-5.309,9.993,9.993,0,0,1,19.985,0,9.882,9.882,0,0,1-1.542,5.309C160.221,369.885,164.007,372.6,164.007,381.478Zm-2.5,0c0-6.148-2.069-9.993-5.933-10.188a9.913,9.913,0,0,1-13.115,0c-3.864.195-5.933,4.04-5.933,10.188,0,2.653,1.874,4.781,4.157,4.781h16.667C159.635,386.259,161.509,384.131,161.509,381.478Zm-19.985-17.7a7.495,7.495,0,1,0,7.5-7.494A7.5,7.5,0,0,0,141.524,363.776Z" transform="translate(-8 -7)"/></g><g class="cls-25"><path d="M628.854,524.23H612.188c-2.284,0-4.158-2.322-4.158-5.171,0-5.133,1.269-11.066,6.382-11.066a8.718,8.718,0,0,0,12.217,0c5.113,0,6.382,5.933,6.382,11.066C633.011,521.908,631.137,524.23,628.854,524.23Zm-8.333-14.988a7.494,7.494,0,1,1,7.494-7.494A7.5,7.5,0,0,1,620.521,509.242Z" transform="translate(-8 -7)"/><circle class="cls-16" cx="623" cy="515.972" r="9"/><path d="M634.5,527.612a1.236,1.236,0,0,1-1.227,1.227h-4.906a1.235,1.235,0,0,1-1.226-1.227V517.8a1.235,1.235,0,0,1,1.226-1.227h4.906A1.236,1.236,0,0,1,634.5,517.8Zm-.92-8.279a.316.316,0,0,0-.307-.307h-4.906a.316.316,0,0,0-.307.307v6.746a.316.316,0,0,0,.307.307h4.906a.316.316,0,0,0,.307-.307Zm-1.993-1.533h-1.533a.153.153,0,1,0,0,.306h1.533a.153.153,0,0,0,0-.306Zm-.767,9.046a.767.767,0,1,0,.767.766A.767.767,0,0,0,630.822,526.846Z" transform="translate(-8 -7)"/><path d="M399.39,504.274h10.617v20.609a1.875,1.875,0,0,1-1.874,1.874H381.9a1.875,1.875,0,0,1-1.874-1.874V493.658a1.875,1.875,0,0,1,1.874-1.874h15.613V502.4A1.874,1.874,0,0,0,399.39,504.274Zm.625-11.709a4.145,4.145,0,0,1,.7.546l7.963,7.963a4.145,4.145,0,0,1,.546.7h-9.211Z" transform="translate(-8 -7)"/><g class="cls-17"><path d="M628.854,568.259H612.188c-2.284,0-4.158-2.322-4.158-5.172,0-5.133,1.269-11.066,6.382-11.066a8.715,8.715,0,0,0,12.217,0c5.113,0,6.382,5.933,6.382,11.066C633.011,565.937,631.137,568.259,628.854,568.259Zm-8.333-14.988a7.495,7.495,0,1,1,7.494-7.5A7.5,7.5,0,0,1,620.521,553.271Z" transform="translate(-8 -7)"/></g><circle class="cls-16" cx="623" cy="560" r="9"/><g class="cls-17"><path d="M634.5,571.641a1.235,1.235,0,0,1-1.227,1.226h-4.906a1.234,1.234,0,0,1-1.226-1.226v-9.813a1.234,1.234,0,0,1,1.226-1.226h4.906a1.235,1.235,0,0,1,1.227,1.226Zm-.92-8.28a.315.315,0,0,0-.307-.306h-4.906a.315.315,0,0,0-.307.306v6.746a.315.315,0,0,0,.307.307h4.906a.315.315,0,0,0,.307-.307Zm-1.993-1.533h-1.533a.154.154,0,1,0,0,.307h1.533a.154.154,0,0,0,0-.307Zm-.767,9.046a.767.767,0,1,0,.767.767A.768.768,0,0,0,630.822,570.874Z" transform="translate(-8 -7)"/></g><g class="cls-17"><path d="M399.39,551.274h10.617v20.609a1.875,1.875,0,0,1-1.874,1.874H381.9a1.875,1.875,0,0,1-1.874-1.874V540.657a1.874,1.874,0,0,1,1.874-1.873h15.613V549.4A1.874,1.874,0,0,0,399.39,551.274Zm.625-11.71a4.2,4.2,0,0,1,.7.547l7.963,7.962a4.2,4.2,0,0,1,.546.7h-9.211Z" transform="translate(-8 -7)"/></g><g class="cls-22"><path d="M399.39,599.274h10.617v20.609a1.875,1.875,0,0,1-1.874,1.874H381.9a1.875,1.875,0,0,1-1.874-1.874V588.657a1.874,1.874,0,0,1,1.874-1.873h15.613V597.4A1.874,1.874,0,0,0,399.39,599.274Zm.625-11.71a4.2,4.2,0,0,1,.7.547l7.963,7.962a4.2,4.2,0,0,1,.546.7h-9.211Z" transform="translate(-8 -7)"/></g><path d="M164.007,501.478c0,4.02-2.986,7.279-6.655,7.279H140.685c-3.669,0-6.655-3.259-6.655-7.279,0-8.88,3.786-11.593,6.538-12.393a9.882,9.882,0,0,1-1.542-5.309,9.993,9.993,0,0,1,19.985,0,9.882,9.882,0,0,1-1.542,5.309C160.221,489.885,164.007,492.6,164.007,501.478Zm-2.5,0c0-6.148-2.069-9.993-5.933-10.188a9.913,9.913,0,0,1-13.115,0c-3.864.195-5.933,4.04-5.933,10.188,0,2.653,1.874,4.781,4.157,4.781h16.667C159.635,506.259,161.509,504.131,161.509,501.478Zm-19.985-17.7a7.495,7.495,0,1,0,7.5-7.494A7.5,7.5,0,0,0,141.524,483.776Z" transform="translate(-8 -7)"/><g class="cls-17"><path d="M164.007,561.478c0,4.019-2.986,7.279-6.655,7.279H140.685c-3.669,0-6.655-3.26-6.655-7.279,0-8.88,3.786-11.593,6.538-12.393a9.882,9.882,0,0,1-1.542-5.309,9.993,9.993,0,0,1,19.985,0,9.882,9.882,0,0,1-1.542,5.309C160.221,549.885,164.007,552.6,164.007,561.478Zm-2.5,0c0-6.148-2.069-9.993-5.933-10.188a9.913,9.913,0,0,1-13.115,0c-3.864.2-5.933,4.04-5.933,10.188,0,2.653,1.874,4.781,4.157,4.781h16.667C159.635,566.259,161.509,564.131,161.509,561.478Zm-19.985-17.7a7.495,7.495,0,1,0,7.5-7.494A7.5,7.5,0,0,0,141.524,543.776Z" transform="translate(-8 -7)"/></g><g class="cls-22"><path d="M164.007,616.478c0,4.019-2.986,7.279-6.655,7.279H140.685c-3.669,0-6.655-3.26-6.655-7.279,0-8.88,3.786-11.593,6.538-12.393a9.882,9.882,0,0,1-1.542-5.309,9.993,9.993,0,0,1,19.985,0,9.882,9.882,0,0,1-1.542,5.309C160.221,604.885,164.007,607.6,164.007,616.478Zm-2.5,0c0-6.148-2.069-9.993-5.933-10.188a9.913,9.913,0,0,1-13.115,0c-3.864.2-5.933,4.04-5.933,10.188,0,2.653,1.874,4.781,4.157,4.781h16.667C159.635,621.259,161.509,619.131,161.509,616.478Zm-19.985-17.7a7.495,7.495,0,1,0,7.5-7.494A7.5,7.5,0,0,0,141.524,598.776Z" transform="translate(-8 -7)"/></g></g><text class="cls-18" transform="translate(164.379 247.984)">Managers can create Forms and<tspan x="0" y="14.4">App Users, and manage settings</tspan></text><text class="cls-18" transform="translate(164.379 305.984)">Data Collectors can collect Form<tspan x="0" y="14.4">data through a web browser</tspan></text><text class="cls-18" transform="translate(164.379 360.984)">For information on other Project<tspan x="0" y="14.4">roles, see </tspan><tspan class="cls-23" x="51.399" y="14.4">here</tspan></text><text class="cls-18" transform="translate(639.379 311.984)">Each<tspan class="cls-26" x="25.911" y="0"> </tspan><tspan x="28.224" y="0">App User account can be</tspan><tspan x="0" y="14.4">allowed access to specific Forms</tspan></text><text class="cls-27" transform="translate(783.937 376.403)"></text></g></svg>