<svg id="Layer_1" data-name="Layer 1" xmlns="http://www.w3.org/2000/svg" width="635.72" height="399.627" viewBox="0 0 635.72 399.627"><rect width="635.72" height="399.627" rx="40.706" style="fill:#fff"/><path d="M81.987,37.769V68.618a2.572,2.572,0,0,1-2.571,2.571H43.425a2.571,2.571,0,0,1-2.571-2.571V25.772A2.571,2.571,0,0,1,43.425,23.2H67.419a7.178,7.178,0,0,1,4.391,1.821l8.356,8.355A7.181,7.181,0,0,1,81.987,37.769ZM78.559,40.34H67.419a2.572,2.572,0,0,1-2.571-2.571V26.629H44.282V67.762H78.559ZM68.276,36.912H78.345a3.426,3.426,0,0,0-.589-1.1l-8.382-8.382a3.417,3.417,0,0,0-1.1-.589Z"/><rect x="54.435" y="45.278" width="41.599" height="19.055" rx="9.528"/><path d="M64.745,59.41H62.47V56.72h2.275Z" style="fill:#fff"/><path d="M70.892,52.806a2.349,2.349,0,0,0-.155-.594,1.071,1.071,0,0,0-.319-.431.866.866,0,0,0-.552-.164,1.084,1.084,0,0,0-1.121.784,4.014,4.014,0,0,0-.189.983q-.052.6-.052,1.405,0,.862.052,1.474a4.183,4.183,0,0,0,.189,1.009,1.16,1.16,0,0,0,.388.577,1.075,1.075,0,0,0,.647.181.926.926,0,0,0,.879-.517,3.7,3.7,0,0,0,.276-1.655h2.276a4.174,4.174,0,0,1-.819,2.784,3.4,3.4,0,0,1-2.715.957,5.085,5.085,0,0,1-1.561-.215,2.272,2.272,0,0,1-1.1-.776,3.845,3.845,0,0,1-.664-1.5,10.291,10.291,0,0,1-.224-2.336A8.574,8.574,0,0,1,66.4,52.4a3.834,3.834,0,0,1,.776-1.5,2.68,2.68,0,0,1,1.189-.784,4.9,4.9,0,0,1,1.517-.224,3.117,3.117,0,0,1,2.491.965,3.865,3.865,0,0,1,.837,2.621H70.935A5.3,5.3,0,0,0,70.892,52.806Z" style="fill:#fff"/><path d="M76.193,56.685a1.442,1.442,0,0,0,.319.975,1.149,1.149,0,0,0,.922.37,1.318,1.318,0,0,0,.879-.276,1.017,1.017,0,0,0,.328-.827.87.87,0,0,0-.258-.681,2.021,2.021,0,0,0-.6-.371l-1.672-.6a3.17,3.17,0,0,1-1.483-.974,2.509,2.509,0,0,1-.5-1.612,3.05,3.05,0,0,1,.19-1.078,2.249,2.249,0,0,1,.6-.887,2.993,2.993,0,0,1,1.06-.6,4.8,4.8,0,0,1,1.56-.224,3.535,3.535,0,0,1,2.4.689,2.473,2.473,0,0,1,.776,1.949v.379H78.572a1.9,1.9,0,0,0-.233-1.061.925.925,0,0,0-.819-.335,1.277,1.277,0,0,0-.784.25.873.873,0,0,0-.336.75.986.986,0,0,0,.215.62,1.657,1.657,0,0,0,.819.465l1.431.483a3.239,3.239,0,0,1,1.586.992,2.679,2.679,0,0,1,.466,1.663,2.967,2.967,0,0,1-.259,1.285,2.525,2.525,0,0,1-.715.905,2.806,2.806,0,0,1-1.087.517,5.813,5.813,0,0,1-1.387.155,6.182,6.182,0,0,1-1.664-.189,2.431,2.431,0,0,1-1.052-.569,2.059,2.059,0,0,1-.543-.923,4.436,4.436,0,0,1-.155-1.215v-.328h2.138Z" style="fill:#fff"/><path d="M88.882,50.134,86.555,59.41H83.8l-2.4-9.276h2.482l1.328,6.638h.034L86.5,50.134Z" style="fill:#fff"/><path d="M81.987,111.118v30.849a2.572,2.572,0,0,1-2.571,2.571H43.425a2.571,2.571,0,0,1-2.571-2.571V99.12a2.571,2.571,0,0,1,2.571-2.57H67.419a7.183,7.183,0,0,1,4.391,1.82l8.356,8.356A7.181,7.181,0,0,1,81.987,111.118Zm-3.428,2.57H67.419a2.571,2.571,0,0,1-2.571-2.57V99.977H44.282V141.11H78.559Zm-10.283-3.427H78.345a3.444,3.444,0,0,0-.589-1.1l-8.382-8.381a3.4,3.4,0,0,0-1.1-.589Z"/><rect x="54.435" y="118.627" width="41.599" height="19.055" rx="9.528"/><path d="M64.745,132.758H62.47v-2.689h2.275Z" style="fill:#fff"/><path d="M70.892,126.155a2.368,2.368,0,0,0-.155-.595,1.078,1.078,0,0,0-.319-.431.866.866,0,0,0-.552-.163,1.084,1.084,0,0,0-1.121.784,4,4,0,0,0-.189.983q-.052.594-.052,1.405,0,.862.052,1.474a4.174,4.174,0,0,0,.189,1.008,1.159,1.159,0,0,0,.388.578,1.075,1.075,0,0,0,.647.181.928.928,0,0,0,.879-.517,3.707,3.707,0,0,0,.276-1.656h2.276a4.177,4.177,0,0,1-.819,2.785,3.4,3.4,0,0,1-2.715.957,5.053,5.053,0,0,1-1.561-.216,2.259,2.259,0,0,1-1.1-.776,3.845,3.845,0,0,1-.664-1.5,10.285,10.285,0,0,1-.224-2.336,8.562,8.562,0,0,1,.276-2.37,3.82,3.82,0,0,1,.776-1.5,2.68,2.68,0,0,1,1.189-.784,4.868,4.868,0,0,1,1.517-.224,3.114,3.114,0,0,1,2.491.965,3.864,3.864,0,0,1,.837,2.62H70.935A5.281,5.281,0,0,0,70.892,126.155Z" style="fill:#fff"/><path d="M76.193,130.034a1.438,1.438,0,0,0,.319.974,1.146,1.146,0,0,0,.922.371,1.318,1.318,0,0,0,.879-.276,1.019,1.019,0,0,0,.328-.827.87.87,0,0,0-.258-.681,2,2,0,0,0-.6-.371l-1.672-.6a3.17,3.17,0,0,1-1.483-.974,2.506,2.506,0,0,1-.5-1.611,3.046,3.046,0,0,1,.19-1.078,2.26,2.26,0,0,1,.6-.888,2.991,2.991,0,0,1,1.06-.6,4.776,4.776,0,0,1,1.56-.224,3.535,3.535,0,0,1,2.4.689,2.471,2.471,0,0,1,.776,1.948v.38H78.572a1.9,1.9,0,0,0-.233-1.061.926.926,0,0,0-.819-.336,1.283,1.283,0,0,0-.784.25.876.876,0,0,0-.336.75.987.987,0,0,0,.215.621,1.657,1.657,0,0,0,.819.465l1.431.483a3.238,3.238,0,0,1,1.586.991,2.682,2.682,0,0,1,.466,1.664,2.965,2.965,0,0,1-.259,1.284,2.516,2.516,0,0,1-.715.905,2.807,2.807,0,0,1-1.087.518,5.813,5.813,0,0,1-1.387.155,6.138,6.138,0,0,1-1.664-.19,2.421,2.421,0,0,1-1.052-.569,2.056,2.056,0,0,1-.543-.922,4.436,4.436,0,0,1-.155-1.215v-.328h2.138Z" style="fill:#fff"/><path d="M88.882,123.483l-2.327,9.275H83.8l-2.4-9.275h2.482l1.328,6.637h.034l1.259-6.637Z" style="fill:#fff"/><line x1="105.488" y1="45.278" x2="411.011" y2="45.278" style="fill:none;stroke:#000;stroke-miterlimit:10;stroke-width:2px"/><polygon points="419.483 45.278 407.544 50.157 410.377 45.278 407.544 40.401 419.483 45.278"/><line x1="105.488" y1="118.627" x2="411.011" y2="118.627" style="fill:none;stroke:#000;stroke-miterlimit:10;stroke-width:2px"/><polygon points="419.483 118.627 407.544 123.505 410.377 118.627 407.544 113.749 419.483 118.627"/><line x1="488.712" y1="325.953" x2="352.777" y2="325.953" style="fill:none;stroke:#000;stroke-miterlimit:10;stroke-width:2px"/><polygon points="344.305 325.953 356.244 321.074 353.411 325.953 356.244 330.83 344.305 325.953"/><polyline points="177.993 325.953 135.34 325.953 135.34 255.325 166.504 255.325" style="fill:none;stroke:#000;stroke-miterlimit:10;stroke-width:2px"/><polygon points="174.976 255.325 163.037 260.203 165.87 255.325 163.037 250.447 174.976 255.325"/><line x1="349.995" y1="191.976" x2="411.011" y2="191.976" style="fill:none;stroke:#000;stroke-miterlimit:10;stroke-width:2px"/><polygon points="419.483 191.976 407.544 196.854 410.377 191.976 407.544 187.098 419.483 191.976"/><line x1="523.585" y1="216.908" x2="523.585" y2="240.092" style="fill:none;stroke:#000;stroke-miterlimit:10;stroke-width:2px"/><polygon points="523.585 248.565 518.706 236.626 523.585 239.459 528.462 236.626 523.585 248.565"/><line x1="291.547" y1="367.589" x2="291.547" y2="380.301" style="fill:none;stroke:#ccc;stroke-miterlimit:10;stroke-width:2px"/><polygon points="291.547 388.774 286.669 376.835 291.547 379.668 296.425 376.835 291.547 388.774" style="fill:#ccc"/><path d="M32.528,84.2a1.932,1.932,0,0,1-.721.741,2.089,2.089,0,0,1-.987.21,1.908,1.908,0,0,1-1.75-.909,6.026,6.026,0,0,1-.56-3.011,6.147,6.147,0,0,1,.56-3.03,1.9,1.9,0,0,1,1.75-.932,1.816,1.816,0,0,1,.931.225,2.187,2.187,0,0,1,.693.671h.028V75H34.4v10H32.556v-.8Zm-1.9-1.114a.789.789,0,0,0,.819.623.8.8,0,0,0,.833-.623,9.2,9.2,0,0,0,0-3.71.8.8,0,0,0-.833-.623.79.79,0,0,0-.819.623,9.2,9.2,0,0,0,0,3.71Z" style="fill:#999"/><path d="M37.694,74.885v1.651H35.762V74.885Zm0,2.575v7.533H35.762V77.46Z" style="fill:#999"/><path d="M40.466,82.781a1.17,1.17,0,0,0,.259.791.936.936,0,0,0,.749.3,1.068,1.068,0,0,0,.714-.224.829.829,0,0,0,.266-.672.7.7,0,0,0-.21-.552,1.635,1.635,0,0,0-.49-.3L40.4,81.633a2.59,2.59,0,0,1-1.2-.791,2.04,2.04,0,0,1-.406-1.309,2.471,2.471,0,0,1,.154-.875,1.846,1.846,0,0,1,.49-.722,2.435,2.435,0,0,1,.861-.489,3.894,3.894,0,0,1,1.267-.183,2.869,2.869,0,0,1,1.946.561,2,2,0,0,1,.63,1.582v.308H42.4a1.542,1.542,0,0,0-.189-.862.755.755,0,0,0-.665-.273,1.034,1.034,0,0,0-.637.2.709.709,0,0,0-.273.608.794.794,0,0,0,.175.5,1.344,1.344,0,0,0,.665.379l1.162.391a2.629,2.629,0,0,1,1.288.806,2.179,2.179,0,0,1,.378,1.351,2.4,2.4,0,0,1-.21,1.043,2.037,2.037,0,0,1-.581.734,2.258,2.258,0,0,1-.882.42,4.713,4.713,0,0,1-1.127.126,5.037,5.037,0,0,1-1.351-.153,1.979,1.979,0,0,1-.854-.462,1.667,1.667,0,0,1-.441-.749,3.592,3.592,0,0,1-.126-.988v-.265h1.736Z" style="fill:#999"/><path d="M47.62,75.305V77.46h1.12v1.317H47.62V82.85a1.146,1.146,0,0,0,.133.638.645.645,0,0,0,.553.189c.075,0,.149,0,.224-.008s.145-.011.21-.021v1.345c-.215,0-.423.006-.623.021s-.413.021-.637.021a4.419,4.419,0,0,1-.917-.078.928.928,0,0,1-.546-.307,1.338,1.338,0,0,1-.259-.61,5.323,5.323,0,0,1-.07-.951V78.777h-.98V77.46h.98V75.305Z" style="fill:#999"/><path d="M51.26,77.46v1.009h.028A2.727,2.727,0,0,1,52,77.594a1.6,1.6,0,0,1,1.022-.33c.056,0,.114,0,.175.007s.119.013.175.021V79.14c-.1-.009-.2-.016-.3-.021s-.2-.006-.3-.006a1.9,1.9,0,0,0-.5.069,1.356,1.356,0,0,0-.462.231,1.167,1.167,0,0,0-.336.42,1.454,1.454,0,0,0-.126.638v4.522H49.412V77.46Z" style="fill:#999"/><path d="M56.076,74.885v1.651H54.143V74.885Zm0,2.575v7.533H54.143V77.46Z" style="fill:#999"/><path d="M61.024,79.631a1.856,1.856,0,0,0-.126-.484.858.858,0,0,0-.259-.349.7.7,0,0,0-.448-.134.882.882,0,0,0-.909.638,3.249,3.249,0,0,0-.155.8c-.028.323-.042.7-.042,1.142q0,.7.042,1.2a3.4,3.4,0,0,0,.155.82.924.924,0,0,0,.315.468.864.864,0,0,0,.524.147.75.75,0,0,0,.714-.42,2.994,2.994,0,0,0,.224-1.343h1.849a3.392,3.392,0,0,1-.665,2.26,2.762,2.762,0,0,1-2.206.777,4.141,4.141,0,0,1-1.267-.174,1.85,1.85,0,0,1-.9-.63,3.15,3.15,0,0,1-.539-1.219,8.348,8.348,0,0,1-.182-1.9,6.966,6.966,0,0,1,.224-1.924,3.15,3.15,0,0,1,.63-1.219,2.181,2.181,0,0,1,.966-.636,3.981,3.981,0,0,1,1.232-.183,2.53,2.53,0,0,1,2.023.785,3.137,3.137,0,0,1,.68,2.128H61.059A4.062,4.062,0,0,0,61.024,79.631Z" style="fill:#999"/><path d="M66.267,75.305V77.46h1.121v1.317H66.267V82.85a1.146,1.146,0,0,0,.133.638.645.645,0,0,0,.553.189c.075,0,.149,0,.224-.008s.145-.011.211-.021v1.345c-.215,0-.423.006-.624.021s-.413.021-.637.021a4.425,4.425,0,0,1-.917-.078.928.928,0,0,1-.546-.307,1.338,1.338,0,0,1-.259-.61,5.418,5.418,0,0,1-.07-.951V78.777h-.98V77.46h.98V75.305Z" style="fill:#999"/><path d="M69.473,82.781a1.17,1.17,0,0,0,.259.791.937.937,0,0,0,.749.3,1.068,1.068,0,0,0,.714-.224.829.829,0,0,0,.266-.672.7.7,0,0,0-.21-.552,1.642,1.642,0,0,0-.489-.3L69.4,81.633a2.581,2.581,0,0,1-1.2-.791,2.041,2.041,0,0,1-.407-1.309,2.472,2.472,0,0,1,.155-.875,1.833,1.833,0,0,1,.489-.722,2.444,2.444,0,0,1,.861-.489,3.9,3.9,0,0,1,1.267-.183,2.872,2.872,0,0,1,1.947.561,2.007,2.007,0,0,1,.629,1.582v.308H71.406a1.541,1.541,0,0,0-.19-.862.754.754,0,0,0-.664-.273,1.037,1.037,0,0,0-.638.2.709.709,0,0,0-.273.608.8.8,0,0,0,.175.5,1.349,1.349,0,0,0,.665.379l1.162.391a2.625,2.625,0,0,1,1.288.806,2.179,2.179,0,0,1,.378,1.351,2.391,2.391,0,0,1-.21,1.043,2.037,2.037,0,0,1-.581.734,2.261,2.261,0,0,1-.881.42,4.713,4.713,0,0,1-1.127.126,5.027,5.027,0,0,1-1.351-.153,1.967,1.967,0,0,1-.854-.462,1.667,1.667,0,0,1-.441-.749,3.553,3.553,0,0,1-.127-.988v-.265h1.736Z" style="fill:#999"/><path d="M76.235,84.993H74.387V82.808h1.848Z" style="fill:#999"/><path d="M81.226,79.631a1.938,1.938,0,0,0-.126-.484.867.867,0,0,0-.259-.349.7.7,0,0,0-.448-.134.883.883,0,0,0-.91.638,3.253,3.253,0,0,0-.154.8c-.028.323-.042.7-.042,1.142q0,.7.042,1.2a3.4,3.4,0,0,0,.154.82.924.924,0,0,0,.315.468.866.866,0,0,0,.525.147.75.75,0,0,0,.714-.42,3.008,3.008,0,0,0,.224-1.343h1.848a3.387,3.387,0,0,1-.665,2.26,2.759,2.759,0,0,1-2.2.777,4.136,4.136,0,0,1-1.267-.174,1.845,1.845,0,0,1-.9-.63,3.135,3.135,0,0,1-.539-1.219,8.348,8.348,0,0,1-.182-1.9,6.966,6.966,0,0,1,.224-1.924,3.123,3.123,0,0,1,.63-1.219,2.181,2.181,0,0,1,.966-.636,3.976,3.976,0,0,1,1.232-.183,2.531,2.531,0,0,1,2.023.785,3.137,3.137,0,0,1,.679,2.128H81.261A4.233,4.233,0,0,0,81.226,79.631Z" style="fill:#999"/><path d="M85.531,82.781a1.17,1.17,0,0,0,.259.791.936.936,0,0,0,.749.3,1.068,1.068,0,0,0,.714-.224.829.829,0,0,0,.266-.672.7.7,0,0,0-.21-.552,1.635,1.635,0,0,0-.49-.3l-1.358-.489a2.59,2.59,0,0,1-1.2-.791,2.04,2.04,0,0,1-.406-1.309,2.471,2.471,0,0,1,.154-.875,1.846,1.846,0,0,1,.49-.722,2.435,2.435,0,0,1,.861-.489,3.894,3.894,0,0,1,1.267-.183,2.869,2.869,0,0,1,1.946.561,2,2,0,0,1,.63,1.582v.308H87.463a1.542,1.542,0,0,0-.189-.862.755.755,0,0,0-.665-.273,1.034,1.034,0,0,0-.637.2.709.709,0,0,0-.273.608.794.794,0,0,0,.175.5,1.344,1.344,0,0,0,.665.379l1.162.391a2.634,2.634,0,0,1,1.288.806,2.179,2.179,0,0,1,.378,1.351,2.4,2.4,0,0,1-.21,1.043,2.037,2.037,0,0,1-.581.734,2.272,2.272,0,0,1-.882.42,4.713,4.713,0,0,1-1.127.126,5.037,5.037,0,0,1-1.351-.153,1.979,1.979,0,0,1-.854-.462,1.667,1.667,0,0,1-.441-.749,3.592,3.592,0,0,1-.126-.988v-.265h1.736Z" style="fill:#999"/><path d="M95.835,77.46l-1.89,7.533h-2.24L89.759,77.46h2.016l1.078,5.39h.028L93.9,77.46Z" style="fill:#999"/><path d="M37.995,152.142a1.858,1.858,0,0,0-.126-.483.864.864,0,0,0-.259-.35.707.707,0,0,0-.448-.133.88.88,0,0,0-.91.637,3.252,3.252,0,0,0-.154.8c-.028.322-.042.7-.042,1.141q0,.7.042,1.2a3.386,3.386,0,0,0,.154.819.928.928,0,0,0,.315.469.872.872,0,0,0,.525.147.752.752,0,0,0,.714-.42,3.013,3.013,0,0,0,.224-1.344h1.848a3.388,3.388,0,0,1-.665,2.261,2.763,2.763,0,0,1-2.2.777,4.1,4.1,0,0,1-1.267-.175,1.832,1.832,0,0,1-.9-.63,3.123,3.123,0,0,1-.539-1.218,8.355,8.355,0,0,1-.182-1.9,6.979,6.979,0,0,1,.224-1.925,3.125,3.125,0,0,1,.63-1.218,2.184,2.184,0,0,1,.966-.637,3.977,3.977,0,0,1,1.232-.182,2.531,2.531,0,0,1,2.023.784,3.139,3.139,0,0,1,.679,2.128H38.03A4.256,4.256,0,0,0,37.995,152.142Z" style="fill:#999"/><path d="M40.788,152.03a3.264,3.264,0,0,1,.5-1.239,2.239,2.239,0,0,1,.917-.756,3.354,3.354,0,0,1,1.393-.259,3.555,3.555,0,0,1,1.442.231,2.024,2.024,0,0,1,.91.749A3.341,3.341,0,0,1,46.43,152a9.5,9.5,0,0,1,.14,1.736,8.51,8.51,0,0,1-.154,1.708,3.3,3.3,0,0,1-.5,1.239,2.082,2.082,0,0,1-.917.735,3.6,3.6,0,0,1-1.393.238,3.732,3.732,0,0,1-1.442-.217,1.944,1.944,0,0,1-.91-.728,3.268,3.268,0,0,1-.476-1.246,9.434,9.434,0,0,1-.14-1.729A8.444,8.444,0,0,1,40.788,152.03Zm1.806,2.772a3.7,3.7,0,0,0,.133.84,1.2,1.2,0,0,0,.315.546.785.785,0,0,0,.56.2.819.819,0,0,0,.812-.616,9.31,9.31,0,0,0,0-4.06.82.82,0,0,0-.812-.616.79.79,0,0,0-.56.2,1.2,1.2,0,0,0-.315.546,3.715,3.715,0,0,0-.133.84q-.029.49-.028,1.064C42.566,154.121,42.575,154.475,42.594,154.8Z" style="fill:#999"/><path d="M49.608,147.508v10H47.676v-10Z" style="fill:#999"/><path d="M50.868,152.03a3.3,3.3,0,0,1,.5-1.239,2.239,2.239,0,0,1,.917-.756,3.354,3.354,0,0,1,1.393-.259,3.552,3.552,0,0,1,1.442.231,2.024,2.024,0,0,1,.91.749A3.341,3.341,0,0,1,56.51,152a9.5,9.5,0,0,1,.14,1.736,8.51,8.51,0,0,1-.154,1.708,3.3,3.3,0,0,1-.5,1.239,2.082,2.082,0,0,1-.917.735,3.6,3.6,0,0,1-1.393.238,3.732,3.732,0,0,1-1.442-.217,1.944,1.944,0,0,1-.91-.728,3.268,3.268,0,0,1-.476-1.246,9.523,9.523,0,0,1-.14-1.729A8.444,8.444,0,0,1,50.868,152.03Zm1.806,2.772a3.7,3.7,0,0,0,.133.84,1.2,1.2,0,0,0,.315.546.787.787,0,0,0,.56.2.818.818,0,0,0,.812-.616,9.31,9.31,0,0,0,0-4.06.819.819,0,0,0-.812-.616.791.791,0,0,0-.56.2,1.2,1.2,0,0,0-.315.546,3.715,3.715,0,0,0-.133.84q-.029.49-.028,1.064C52.646,154.121,52.655,154.475,52.674,154.8Z" style="fill:#999"/><path d="M59.534,149.972v1.008h.028a2.748,2.748,0,0,1,.714-.875,1.607,1.607,0,0,1,1.022-.329c.056,0,.114,0,.175.007s.119.012.175.021v1.848c-.1-.009-.2-.016-.3-.021s-.2-.007-.3-.007a1.9,1.9,0,0,0-.5.07,1.356,1.356,0,0,0-.462.231,1.167,1.167,0,0,0-.336.42,1.449,1.449,0,0,0-.126.637V157.5H57.686v-7.532Z" style="fill:#999"/><path d="M63.762,155.292a1.167,1.167,0,0,0,.259.791.933.933,0,0,0,.749.3,1.075,1.075,0,0,0,.714-.224.829.829,0,0,0,.266-.672.705.705,0,0,0-.21-.553,1.632,1.632,0,0,0-.49-.3l-1.358-.49a2.575,2.575,0,0,1-1.2-.791,2.036,2.036,0,0,1-.406-1.309,2.479,2.479,0,0,1,.154-.875,1.85,1.85,0,0,1,.49-.721,2.437,2.437,0,0,1,.861-.49,3.9,3.9,0,0,1,1.267-.182,2.869,2.869,0,0,1,1.946.56,2.007,2.007,0,0,1,.63,1.582v.308H65.694a1.538,1.538,0,0,0-.189-.861.752.752,0,0,0-.665-.273,1.04,1.04,0,0,0-.637.2.712.712,0,0,0-.273.609.794.794,0,0,0,.175.5,1.352,1.352,0,0,0,.665.378l1.162.392a2.641,2.641,0,0,1,1.288.805,2.183,2.183,0,0,1,.378,1.351,2.4,2.4,0,0,1-.21,1.043,2.049,2.049,0,0,1-.581.735,2.286,2.286,0,0,1-.882.42,4.713,4.713,0,0,1-1.127.126,4.992,4.992,0,0,1-1.351-.154,1.969,1.969,0,0,1-.854-.462,1.667,1.667,0,0,1-.441-.749,3.59,3.59,0,0,1-.126-.987v-.266h1.736Z" style="fill:#999"/><path d="M70.523,157.5H68.675V155.32h1.848Z" style="fill:#999"/><path d="M75.514,152.142a1.858,1.858,0,0,0-.126-.483.864.864,0,0,0-.259-.35.7.7,0,0,0-.448-.133.88.88,0,0,0-.91.637,3.252,3.252,0,0,0-.154.8c-.028.322-.042.7-.042,1.141q0,.7.042,1.2a3.386,3.386,0,0,0,.154.819.94.94,0,0,0,.315.469.874.874,0,0,0,.525.147.752.752,0,0,0,.714-.42,3.013,3.013,0,0,0,.224-1.344H77.4a3.388,3.388,0,0,1-.665,2.261,2.761,2.761,0,0,1-2.2.777,4.1,4.1,0,0,1-1.267-.175,1.832,1.832,0,0,1-.9-.63,3.123,3.123,0,0,1-.539-1.218,8.355,8.355,0,0,1-.182-1.9,6.979,6.979,0,0,1,.224-1.925,3.125,3.125,0,0,1,.63-1.218,2.184,2.184,0,0,1,.966-.637,3.977,3.977,0,0,1,1.232-.182,2.531,2.531,0,0,1,2.023.784,3.139,3.139,0,0,1,.679,2.128H75.549A4.256,4.256,0,0,0,75.514,152.142Z" style="fill:#999"/><path d="M79.82,155.292a1.171,1.171,0,0,0,.258.791.934.934,0,0,0,.749.3,1.073,1.073,0,0,0,.714-.224.826.826,0,0,0,.266-.672.7.7,0,0,0-.21-.553,1.639,1.639,0,0,0-.489-.3l-1.359-.49a2.571,2.571,0,0,1-1.2-.791,2.037,2.037,0,0,1-.407-1.309,2.48,2.48,0,0,1,.155-.875,1.829,1.829,0,0,1,.49-.721,2.441,2.441,0,0,1,.86-.49,3.9,3.9,0,0,1,1.267-.182,2.872,2.872,0,0,1,1.947.56,2.007,2.007,0,0,1,.63,1.582v.308H81.752a1.538,1.538,0,0,0-.19-.861.75.75,0,0,0-.664-.273,1.04,1.04,0,0,0-.637.2.709.709,0,0,0-.273.609.8.8,0,0,0,.174.5,1.356,1.356,0,0,0,.665.378l1.163.392a2.641,2.641,0,0,1,1.288.805,2.183,2.183,0,0,1,.378,1.351,2.4,2.4,0,0,1-.21,1.043,2.06,2.06,0,0,1-.581.735,2.286,2.286,0,0,1-.882.42,4.713,4.713,0,0,1-1.127.126,4.987,4.987,0,0,1-1.351-.154,1.963,1.963,0,0,1-.854-.462,1.667,1.667,0,0,1-.441-.749,3.551,3.551,0,0,1-.127-.987v-.266H79.82Z" style="fill:#999"/><path d="M90.123,149.972l-1.89,7.532h-2.24l-1.946-7.532h2.016l1.078,5.39h.028l1.022-5.39Z" style="fill:#999"/><circle cx="264.312" cy="45.278" r="16.345"/><path d="M270.354,55.256a4.5,4.5,0,0,1-3.148-1.34L256.8,43.52a5.213,5.213,0,0,1-1.513-3.631,5.054,5.054,0,0,1,5.077-5.1,5.216,5.216,0,0,1,3.657,1.514l8.106,8.118a.434.434,0,0,1,.134.3,1.858,1.858,0,0,1-1.032,1.032.436.436,0,0,1-.308-.134L262.8,37.478a3.51,3.51,0,0,0-2.425-1.032A3.383,3.383,0,0,0,257,39.876a3.44,3.44,0,0,0,1.018,2.425l10.4,10.409a2.811,2.811,0,0,0,1.943.845,1.93,1.93,0,0,0,1.983-1.983,2.787,2.787,0,0,0-.844-1.943l-7.784-7.784a1.193,1.193,0,0,0-.8-.321.873.873,0,0,0-.9.9,1.178,1.178,0,0,0,.335.791l5.493,5.492a.434.434,0,0,1,.134.3,1.9,1.9,0,0,1-1.045,1.045.426.426,0,0,1-.3-.134l-5.493-5.493a2.819,2.819,0,0,1-.844-2,2.6,2.6,0,0,1,2.626-2.626,2.8,2.8,0,0,1,2,.844l7.784,7.784a4.445,4.445,0,0,1,1.339,3.149A3.616,3.616,0,0,1,270.354,55.256Z" style="fill:#fff"/><path d="M81.987,184.466v30.85a2.572,2.572,0,0,1-2.571,2.571H43.425a2.572,2.572,0,0,1-2.571-2.571V172.469a2.572,2.572,0,0,1,2.571-2.571H67.419a7.178,7.178,0,0,1,4.391,1.821l8.356,8.356A7.178,7.178,0,0,1,81.987,184.466Zm-3.428,2.571H67.419a2.571,2.571,0,0,1-2.571-2.571v-11.14H44.282v41.133H78.559Zm-10.283-3.428H78.345a3.437,3.437,0,0,0-.589-1.1l-8.382-8.382a3.437,3.437,0,0,0-1.1-.589Z"/><rect x="54.435" y="191.976" width="41.599" height="19.055" rx="9.528"/><path d="M64.745,206.107H62.47v-2.69h2.275Z" style="fill:#fff"/><path d="M70.892,199.5a2.346,2.346,0,0,0-.155-.595,1.071,1.071,0,0,0-.319-.431.866.866,0,0,0-.552-.164,1.087,1.087,0,0,0-1.121.784,4.014,4.014,0,0,0-.189.983q-.052.6-.052,1.405,0,.863.052,1.474a4.183,4.183,0,0,0,.189,1.009,1.159,1.159,0,0,0,.388.578,1.081,1.081,0,0,0,.647.18.926.926,0,0,0,.879-.517,3.7,3.7,0,0,0,.276-1.655h2.276a4.177,4.177,0,0,1-.819,2.785,3.4,3.4,0,0,1-2.715.956,5.085,5.085,0,0,1-1.561-.215,2.265,2.265,0,0,1-1.1-.776,3.845,3.845,0,0,1-.664-1.5,10.291,10.291,0,0,1-.224-2.336A8.574,8.574,0,0,1,66.4,199.1a3.834,3.834,0,0,1,.776-1.5,2.688,2.688,0,0,1,1.189-.784,4.9,4.9,0,0,1,1.517-.224,3.114,3.114,0,0,1,2.491.966,3.864,3.864,0,0,1,.837,2.62H70.935A5.269,5.269,0,0,0,70.892,199.5Z" style="fill:#fff"/><path d="M76.193,203.383a1.439,1.439,0,0,0,.319.974,1.149,1.149,0,0,0,.922.37,1.318,1.318,0,0,0,.879-.275,1.02,1.02,0,0,0,.328-.828.871.871,0,0,0-.258-.681,2,2,0,0,0-.6-.37l-1.672-.6A3.17,3.17,0,0,1,74.624,201a2.507,2.507,0,0,1-.5-1.612,3.044,3.044,0,0,1,.19-1.077,2.26,2.26,0,0,1,.6-.888,3.008,3.008,0,0,1,1.06-.6,4.8,4.8,0,0,1,1.56-.224,3.529,3.529,0,0,1,2.4.69,2.471,2.471,0,0,1,.776,1.948v.379H78.572a1.894,1.894,0,0,0-.233-1.06.926.926,0,0,0-.819-.336,1.277,1.277,0,0,0-.784.25.873.873,0,0,0-.336.75.984.984,0,0,0,.215.62,1.665,1.665,0,0,0,.819.466l1.431.483a3.238,3.238,0,0,1,1.586.991,2.681,2.681,0,0,1,.466,1.663,2.967,2.967,0,0,1-.259,1.285,2.516,2.516,0,0,1-.715.905,2.792,2.792,0,0,1-1.087.517,5.813,5.813,0,0,1-1.387.155,6.182,6.182,0,0,1-1.664-.189,2.431,2.431,0,0,1-1.052-.569,2.061,2.061,0,0,1-.543-.922,4.449,4.449,0,0,1-.155-1.216v-.327h2.138Z" style="fill:#fff"/><path d="M88.882,196.831l-2.327,9.276H83.8l-2.4-9.276h2.482l1.328,6.638h.034l1.259-6.638Z" style="fill:#fff"/><path d="M30.792,224.716v.8h.028a2.118,2.118,0,0,1,.721-.763,1.953,1.953,0,0,1,.987-.231,1.9,1.9,0,0,1,1.75.931,6.151,6.151,0,0,1,.56,3.031,6.019,6.019,0,0,1-.56,3.01,1.908,1.908,0,0,1-1.75.91,1.786,1.786,0,0,1-1.624-.854h-.028v3.122H28.944v-9.954Zm.273,5.621a.8.8,0,0,0,.833.623.789.789,0,0,0,.819-.623,9.2,9.2,0,0,0,0-3.71A.79.79,0,0,0,31.9,226a.8.8,0,0,0-.833.623,9.2,9.2,0,0,0,0,3.71Z" style="fill:#999"/><path d="M35.93,226.845a2.551,2.551,0,0,1,.21-1.1,1.919,1.919,0,0,1,.567-.714,2.261,2.261,0,0,1,.84-.392,4.307,4.307,0,0,1,1.029-.119,4.773,4.773,0,0,1,1.4.168,1.914,1.914,0,0,1,.826.476,1.6,1.6,0,0,1,.4.735,3.9,3.9,0,0,1,.1.931v3.962a5.288,5.288,0,0,0,.049.826,2.92,2.92,0,0,0,.189.63H39.7a1.613,1.613,0,0,1-.147-.385c-.033-.135-.063-.268-.091-.4H39.43a1.643,1.643,0,0,1-.777.763,3.127,3.127,0,0,1-1.141.175,1.89,1.89,0,0,1-.854-.175,1.455,1.455,0,0,1-.56-.483,2.169,2.169,0,0,1-.308-.692,3.11,3.11,0,0,1-.1-.764,3.3,3.3,0,0,1,.112-.917,1.771,1.771,0,0,1,.343-.658,1.881,1.881,0,0,1,.588-.455,4.642,4.642,0,0,1,.861-.322l1.092-.294a1.169,1.169,0,0,0,.6-.308.856.856,0,0,0,.168-.573,1.039,1.039,0,0,0-.2-.68.856.856,0,0,0-.693-.245.831.831,0,0,0-.672.266,1.073,1.073,0,0,0-.224.714v.21H35.93Zm3.108,1.882a2.68,2.68,0,0,1-.406.133,1.485,1.485,0,0,0-.84.42,1.186,1.186,0,0,0-.252.8,1.526,1.526,0,0,0,.168.742.588.588,0,0,0,.56.308,1.409,1.409,0,0,0,.406-.063,1.124,1.124,0,0,0,.385-.2,1.07,1.07,0,0,0,.287-.364,1.173,1.173,0,0,0,.112-.532v-1.484A1.714,1.714,0,0,1,39.038,228.727Z" style="fill:#999"/><path d="M45.03,222.56v2.156h1.12v1.316H45.03v4.074a1.142,1.142,0,0,0,.133.637.645.645,0,0,0,.553.189c.075,0,.149,0,.224-.007s.145-.011.21-.021v1.344q-.322,0-.623.021t-.637.021a4.5,4.5,0,0,1-.917-.077.929.929,0,0,1-.546-.308,1.33,1.33,0,0,1-.259-.609,5.33,5.33,0,0,1-.07-.951v-4.313h-.98v-1.316h.98V222.56Z" style="fill:#999"/><path d="M48.824,222.14v1.652H46.891V222.14Zm0,2.576v7.532H46.891v-7.532Z" style="fill:#999"/><path d="M51.834,229.378a4.189,4.189,0,0,0,.049.651,2.09,2.09,0,0,0,.161.56,1.05,1.05,0,0,0,.294.392.69.69,0,0,0,.448.147.784.784,0,0,0,.714-.35,2.586,2.586,0,0,0,.308-1.064h1.736a3.016,3.016,0,0,1-.7,2,2.666,2.666,0,0,1-2.03.686,3.227,3.227,0,0,1-1.638-.349,2.173,2.173,0,0,1-.868-.925,3.632,3.632,0,0,1-.343-1.288c-.042-.476-.063-.951-.063-1.428a9.811,9.811,0,0,1,.1-1.456,3.509,3.509,0,0,1,.42-1.246,2.273,2.273,0,0,1,.9-.867,3.261,3.261,0,0,1,1.568-.323,3.049,3.049,0,0,1,1.379.273,2.089,2.089,0,0,1,.847.77,3.233,3.233,0,0,1,.42,1.2,10.2,10.2,0,0,1,.112,1.576v.433H51.834Zm1.918-2.513a1.942,1.942,0,0,0-.147-.559.783.783,0,0,0-.294-.351.9.9,0,0,0-.483-.119.818.818,0,0,0-.483.134.938.938,0,0,0-.3.349,1.7,1.7,0,0,0-.161.484,2.883,2.883,0,0,0-.049.531v.294h1.974Q53.795,227.195,53.752,226.865Z" style="fill:#999"/><path d="M58.512,224.716v.882h.028a1.96,1.96,0,0,1,.8-.819,2.355,2.355,0,0,1,1.12-.259,1.906,1.906,0,0,1,1.421.5,2.272,2.272,0,0,1,.5,1.638v5.586H60.444v-5.193a1.3,1.3,0,0,0-.2-.82.784.784,0,0,0-.63-.231Q58.6,226,58.6,227.25v5H56.664v-7.532Z" style="fill:#999"/><path d="M66.016,222.56v2.156h1.12v1.316h-1.12v4.074a1.142,1.142,0,0,0,.133.637.645.645,0,0,0,.553.189c.075,0,.149,0,.224-.007s.145-.011.21-.021v1.344q-.322,0-.623.021t-.637.021a4.5,4.5,0,0,1-.917-.077.929.929,0,0,1-.546-.308,1.33,1.33,0,0,1-.259-.609,5.33,5.33,0,0,1-.07-.951v-4.313H63.1v-1.316h.98V222.56Z" style="fill:#999"/><path d="M69.222,230.036a1.166,1.166,0,0,0,.258.791.934.934,0,0,0,.749.3,1.068,1.068,0,0,0,.714-.224.829.829,0,0,0,.266-.672.7.7,0,0,0-.21-.552,1.642,1.642,0,0,0-.489-.3l-1.359-.489a2.581,2.581,0,0,1-1.2-.791,2.042,2.042,0,0,1-.407-1.31,2.476,2.476,0,0,1,.155-.875,1.83,1.83,0,0,1,.489-.721,2.445,2.445,0,0,1,.861-.49,3.9,3.9,0,0,1,1.267-.182,2.872,2.872,0,0,1,1.947.56,2.007,2.007,0,0,1,.629,1.582v.309H71.154a1.539,1.539,0,0,0-.19-.862.753.753,0,0,0-.664-.273,1.043,1.043,0,0,0-.638.2.712.712,0,0,0-.273.609.8.8,0,0,0,.175.5,1.341,1.341,0,0,0,.665.378l1.162.392a2.639,2.639,0,0,1,1.289.805,2.187,2.187,0,0,1,.377,1.351,2.391,2.391,0,0,1-.21,1.043,2.038,2.038,0,0,1-.581.735,2.261,2.261,0,0,1-.881.42,4.713,4.713,0,0,1-1.127.126,5.022,5.022,0,0,1-1.351-.154,1.973,1.973,0,0,1-.854-.462,1.667,1.667,0,0,1-.441-.749,3.551,3.551,0,0,1-.127-.987v-.266h1.737Z" style="fill:#999"/><path d="M75.983,232.248H74.135v-2.184h1.848Z" style="fill:#999"/><path d="M80.974,226.887a1.856,1.856,0,0,0-.126-.484.86.86,0,0,0-.259-.349.7.7,0,0,0-.448-.134.88.88,0,0,0-.91.637,3.252,3.252,0,0,0-.154.8c-.028.323-.042.7-.042,1.141q0,.7.042,1.2a3.414,3.414,0,0,0,.154.82.929.929,0,0,0,.315.468.872.872,0,0,0,.525.147.752.752,0,0,0,.714-.42,3.01,3.01,0,0,0,.224-1.344h1.848a3.39,3.39,0,0,1-.665,2.261,2.761,2.761,0,0,1-2.2.777,4.1,4.1,0,0,1-1.267-.175,1.85,1.85,0,0,1-.9-.629,3.135,3.135,0,0,1-.539-1.219,8.355,8.355,0,0,1-.182-1.9,6.979,6.979,0,0,1,.224-1.925,3.118,3.118,0,0,1,.63-1.218,2.184,2.184,0,0,1,.966-.637,3.977,3.977,0,0,1,1.232-.182,2.528,2.528,0,0,1,2.023.785,3.134,3.134,0,0,1,.679,2.127H81.009A4.218,4.218,0,0,0,80.974,226.887Z" style="fill:#999"/><path d="M85.279,230.036a1.167,1.167,0,0,0,.259.791.933.933,0,0,0,.749.3A1.068,1.068,0,0,0,87,230.9a.829.829,0,0,0,.266-.672.7.7,0,0,0-.21-.552,1.635,1.635,0,0,0-.49-.3l-1.358-.489a2.59,2.59,0,0,1-1.2-.791,2.041,2.041,0,0,1-.406-1.31,2.475,2.475,0,0,1,.154-.875,1.843,1.843,0,0,1,.49-.721,2.437,2.437,0,0,1,.861-.49,3.9,3.9,0,0,1,1.267-.182,2.869,2.869,0,0,1,1.946.56,2.007,2.007,0,0,1,.63,1.582v.309H87.211a1.54,1.54,0,0,0-.189-.862.755.755,0,0,0-.665-.273,1.04,1.04,0,0,0-.637.2.712.712,0,0,0-.273.609.794.794,0,0,0,.175.5,1.337,1.337,0,0,0,.665.378l1.162.392a2.641,2.641,0,0,1,1.288.805,2.181,2.181,0,0,1,.378,1.351,2.4,2.4,0,0,1-.21,1.043,2.049,2.049,0,0,1-.581.735,2.265,2.265,0,0,1-.882.42,4.713,4.713,0,0,1-1.127.126,5.033,5.033,0,0,1-1.351-.154,1.979,1.979,0,0,1-.854-.462,1.667,1.667,0,0,1-.441-.749,3.59,3.59,0,0,1-.126-.987v-.266h1.736Z" style="fill:#999"/><path d="M95.583,224.716l-1.89,7.532h-2.24l-1.946-7.532h2.016l1.078,5.39h.028l1.022-5.39Z" style="fill:#999"/><g style="opacity:0.2"><line x1="105.488" y1="191.976" x2="166.504" y2="191.976" style="fill:none;stroke:#000;stroke-miterlimit:10;stroke-width:2px"/><polygon points="174.976 191.976 163.037 196.854 165.87 191.976 163.037 187.098 174.976 191.976"/><circle cx="135.34" cy="191.976" r="16.345"/><path d="M146.491,199.721a1.287,1.287,0,0,1-1.287,1.286h-19.72a1.286,1.286,0,0,1-1.286-1.286v-4.287a1.286,1.286,0,0,1,1.286-1.286h5.72a2.6,2.6,0,0,0,2.425,1.715h3.43a2.6,2.6,0,0,0,2.425-1.715h5.72a1.287,1.287,0,0,1,1.287,1.286Zm-5.145-12.433h-3.43v6a.863.863,0,0,1-.857.858h-3.43a.863.863,0,0,1-.857-.858v-6h-3.43a.859.859,0,0,1-.79-.535.828.828,0,0,1,.187-.925l6-6a.843.843,0,0,1,1.206,0l6,6a.83.83,0,0,1,.188.925A.861.861,0,0,1,141.346,187.288Zm-.857,10.289a.858.858,0,1,0,.857.858A.864.864,0,0,0,140.489,197.577Zm3.429,0a.858.858,0,1,0,.858.858A.864.864,0,0,0,143.918,197.577Z" style="fill:#fff"/></g><circle cx="416.508" cy="325.953" r="16.345"/><path d="M424.229,334.792H409.653a6,6,0,0,1-2.546-11.428c-.013-.2-.026-.389-.026-.576a6.86,6.86,0,0,1,13.209-2.6,3.392,3.392,0,0,1,2.224-.831,3.437,3.437,0,0,1,3.43,3.43,3.351,3.351,0,0,1-.55,1.849,5.144,5.144,0,0,1-1.165,10.155Zm-3.55-9.311-4.716-4.716a.422.422,0,0,0-.308-.121.446.446,0,0,0-.308.121l-4.7,4.7a.5.5,0,0,0-.133.322.423.423,0,0,0,.428.429h3v4.715a.441.441,0,0,0,.429.429h2.572a.441.441,0,0,0,.429-.429v-4.715h3a.433.433,0,0,0,.429-.429A.444.444,0,0,0,420.679,325.481Z" style="fill:#fff"/><circle cx="135.555" cy="290.639" r="16.345"/><path d="M144.99,291.332a1.287,1.287,0,0,1-1.287,1.286H138.13v5.574a1.286,1.286,0,0,1-1.286,1.286h-2.572a1.286,1.286,0,0,1-1.286-1.286v-5.574h-5.574a1.286,1.286,0,0,1-1.286-1.286V288.76a1.286,1.286,0,0,1,1.286-1.286h5.574V281.9a1.286,1.286,0,0,1,1.286-1.286h2.572a1.286,1.286,0,0,1,1.286,1.286v5.573H143.7a1.287,1.287,0,0,1,1.287,1.286Z" style="fill:#fff"/><circle cx="264.312" cy="118.627" r="16.345"/><path d="M270.354,128.6a4.5,4.5,0,0,1-3.148-1.339l-10.41-10.4a5.21,5.21,0,0,1-1.513-3.63,5.054,5.054,0,0,1,5.077-5.1,5.219,5.219,0,0,1,3.657,1.513l8.106,8.119a.432.432,0,0,1,.134.3,1.858,1.858,0,0,1-1.032,1.032.433.433,0,0,1-.308-.135l-8.119-8.131a3.51,3.51,0,0,0-2.425-1.032A3.382,3.382,0,0,0,257,113.224a3.439,3.439,0,0,0,1.018,2.425l10.4,10.41a2.815,2.815,0,0,0,1.943.844,1.93,1.93,0,0,0,1.983-1.983,2.784,2.784,0,0,0-.844-1.942l-7.784-7.784a1.194,1.194,0,0,0-.8-.322.873.873,0,0,0-.9.9,1.173,1.173,0,0,0,.335.79l5.493,5.493a.434.434,0,0,1,.134.3,1.906,1.906,0,0,1-1.045,1.045.43.43,0,0,1-.3-.134l-5.493-5.493a2.821,2.821,0,0,1-.844-2,2.6,2.6,0,0,1,2.626-2.626,2.8,2.8,0,0,1,2,.844l7.784,7.784a4.443,4.443,0,0,1,1.339,3.148A3.615,3.615,0,0,1,270.354,128.6Z" style="fill:#fff"/><circle cx="380.511" cy="191.976" r="16.345"/><path d="M386.554,201.953a4.5,4.5,0,0,1-3.149-1.339L373,190.218a5.214,5.214,0,0,1-1.513-3.631,5.054,5.054,0,0,1,5.077-5.1A5.22,5.22,0,0,1,380.217,183l8.105,8.119a.434.434,0,0,1,.134.295,1.858,1.858,0,0,1-1.032,1.032.436.436,0,0,1-.308-.135L379,184.176a3.508,3.508,0,0,0-2.424-1.032,3.382,3.382,0,0,0-3.376,3.43A3.438,3.438,0,0,0,374.215,189l10.4,10.41a2.811,2.811,0,0,0,1.943.844,1.93,1.93,0,0,0,1.983-1.983,2.783,2.783,0,0,0-.845-1.942l-7.783-7.784a1.2,1.2,0,0,0-.8-.321.873.873,0,0,0-.9.9,1.178,1.178,0,0,0,.335.791l5.493,5.492a.434.434,0,0,1,.134.3,1.906,1.906,0,0,1-1.045,1.045.43.43,0,0,1-.3-.134l-5.493-5.493a2.819,2.819,0,0,1-.844-2,2.6,2.6,0,0,1,2.626-2.626,2.8,2.8,0,0,1,2,.844l7.784,7.784a4.445,4.445,0,0,1,1.34,3.148A3.616,3.616,0,0,1,386.554,201.953Z" style="fill:#fff"/><rect x="190.209" y="165.767" width="142.325" height="108.279" style="fill:none;stroke:#39b54a;stroke-miterlimit:10;stroke-width:4px"/><rect x="190.209" y="165.767" width="142.325" height="26.209" style="fill:#39b54a"/><path d="M196.059,174.168v1.026h.036a2.731,2.731,0,0,1,.927-.981,2.5,2.5,0,0,1,1.269-.3,2.437,2.437,0,0,1,2.25,1.2,7.9,7.9,0,0,1,.72,3.9,7.735,7.735,0,0,1-.72,3.869,2.453,2.453,0,0,1-2.25,1.171,2.3,2.3,0,0,1-2.088-1.1h-.036v4.014h-2.484v-12.8Zm.351,7.227a1.026,1.026,0,0,0,1.071.8,1.015,1.015,0,0,0,1.053-.8,11.826,11.826,0,0,0,0-4.77,1.015,1.015,0,0,0-1.053-.8,1.026,1.026,0,0,0-1.071.8,11.826,11.826,0,0,0,0,4.77Z" style="fill:#fff"/><path d="M202.665,176.9a3.274,3.274,0,0,1,.27-1.412,2.46,2.46,0,0,1,.729-.918,2.9,2.9,0,0,1,1.08-.505,5.567,5.567,0,0,1,1.323-.153,6.176,6.176,0,0,1,1.8.216,2.47,2.47,0,0,1,1.062.612,2.063,2.063,0,0,1,.513.945,5.016,5.016,0,0,1,.135,1.2v5.093a6.732,6.732,0,0,0,.063,1.062,3.706,3.706,0,0,0,.243.81h-2.376a2.027,2.027,0,0,1-.189-.5c-.042-.174-.081-.344-.117-.512h-.036a2.115,2.115,0,0,1-1,.981,4.053,4.053,0,0,1-1.467.225,2.45,2.45,0,0,1-1.1-.225,1.854,1.854,0,0,1-.72-.622,2.778,2.778,0,0,1-.4-.891,3.959,3.959,0,0,1-.126-.981,4.257,4.257,0,0,1,.144-1.179,2.281,2.281,0,0,1,.441-.846,2.4,2.4,0,0,1,.756-.584,6.038,6.038,0,0,1,1.107-.415l1.4-.377a1.516,1.516,0,0,0,.774-.4,1.108,1.108,0,0,0,.216-.739,1.333,1.333,0,0,0-.261-.873,1.1,1.1,0,0,0-.891-.315,1.065,1.065,0,0,0-.864.343,1.378,1.378,0,0,0-.288.917v.271h-2.232Zm4,2.422a3.481,3.481,0,0,1-.522.17,1.915,1.915,0,0,0-1.08.54,1.524,1.524,0,0,0-.324,1.026,1.963,1.963,0,0,0,.216.954.753.753,0,0,0,.72.4,1.78,1.78,0,0,0,.522-.081,1.465,1.465,0,0,0,.495-.261,1.367,1.367,0,0,0,.369-.468,1.513,1.513,0,0,0,.144-.684v-1.907A2.3,2.3,0,0,1,206.661,179.326Z" style="fill:#fff"/><path d="M214.365,171.4v2.772h1.44v1.692h-1.44V181.1a1.472,1.472,0,0,0,.17.819.83.83,0,0,0,.711.243c.1,0,.192,0,.288-.009s.187-.014.271-.027v1.728c-.277,0-.543.009-.8.027s-.532.028-.82.028a5.732,5.732,0,0,1-1.178-.1,1.192,1.192,0,0,1-.7-.4,1.7,1.7,0,0,1-.333-.783,6.8,6.8,0,0,1-.09-1.224V175.86H210.62v-1.692h1.261V171.4Z" style="fill:#fff"/><path d="M219.242,170.856v2.124h-2.484v-2.124Zm0,3.312v9.684h-2.484v-9.684Z" style="fill:#fff"/><path d="M223.113,180.162a5.308,5.308,0,0,0,.063.837,2.71,2.71,0,0,0,.207.721,1.329,1.329,0,0,0,.378.5.883.883,0,0,0,.575.189,1.01,1.01,0,0,0,.919-.45,3.351,3.351,0,0,0,.4-1.367h2.232a3.883,3.883,0,0,1-.9,2.573,3.426,3.426,0,0,1-2.61.883,4.129,4.129,0,0,1-2.106-.451,2.781,2.781,0,0,1-1.115-1.188,4.684,4.684,0,0,1-.442-1.656q-.079-.918-.081-1.836a12.618,12.618,0,0,1,.136-1.872,4.489,4.489,0,0,1,.54-1.6,2.927,2.927,0,0,1,1.161-1.117,4.208,4.208,0,0,1,2.015-.414,3.929,3.929,0,0,1,1.773.351,2.683,2.683,0,0,1,1.09.99,4.182,4.182,0,0,1,.54,1.549,13.106,13.106,0,0,1,.144,2.024v.559h-4.914Zm2.465-3.231a2.531,2.531,0,0,0-.189-.72,1,1,0,0,0-.377-.449,1.154,1.154,0,0,0-.622-.154,1.057,1.057,0,0,0-.621.171,1.217,1.217,0,0,0-.386.45,2.193,2.193,0,0,0-.207.621,3.684,3.684,0,0,0-.063.685v.377h2.538C225.639,177.54,225.615,177.214,225.578,176.931Z" style="fill:#fff"/><path d="M231.7,174.168V175.3h.036a2.529,2.529,0,0,1,1.026-1.054,3.047,3.047,0,0,1,1.44-.333,2.452,2.452,0,0,1,1.827.648,2.92,2.92,0,0,1,.639,2.106v7.182h-2.484v-6.678a1.659,1.659,0,0,0-.252-1.053,1.006,1.006,0,0,0-.81-.3q-1.314,0-1.314,1.6v6.425h-2.484v-9.684Z" style="fill:#fff"/><path d="M241.346,171.4v2.772h1.44v1.692h-1.44V181.1a1.471,1.471,0,0,0,.171.819.828.828,0,0,0,.711.243c.1,0,.192,0,.288-.009s.186-.014.27-.027v1.728q-.414,0-.8.027c-.258.018-.531.028-.819.028a5.749,5.749,0,0,1-1.179-.1,1.192,1.192,0,0,1-.7-.4,1.705,1.705,0,0,1-.333-.783,6.9,6.9,0,0,1-.09-1.224V175.86H237.6v-1.692h1.26V171.4Z" style="fill:#fff"/><path d="M245.468,181.008a1.5,1.5,0,0,0,.333,1.017,1.2,1.2,0,0,0,.963.387,1.379,1.379,0,0,0,.918-.288,1.065,1.065,0,0,0,.342-.863.91.91,0,0,0-.27-.712,2.136,2.136,0,0,0-.63-.387l-1.746-.629a3.327,3.327,0,0,1-1.548-1.018,2.622,2.622,0,0,1-.522-1.683,3.194,3.194,0,0,1,.2-1.125,2.354,2.354,0,0,1,.63-.926,3.119,3.119,0,0,1,1.107-.631,5,5,0,0,1,1.629-.234,3.686,3.686,0,0,1,2.5.721,2.578,2.578,0,0,1,.81,2.033v.4h-2.232a1.978,1.978,0,0,0-.243-1.107.967.967,0,0,0-.855-.351,1.341,1.341,0,0,0-.819.261.914.914,0,0,0-.351.783,1.028,1.028,0,0,0,.225.649,1.724,1.724,0,0,0,.855.485l1.494.5a3.39,3.39,0,0,1,1.656,1.036,2.8,2.8,0,0,1,.486,1.736,3.091,3.091,0,0,1-.27,1.341,2.613,2.613,0,0,1-.747.945,2.929,2.929,0,0,1-1.134.541,6.1,6.1,0,0,1-1.449.162,6.432,6.432,0,0,1-1.737-.2,2.523,2.523,0,0,1-1.1-.594,2.145,2.145,0,0,1-.567-.963,4.616,4.616,0,0,1-.162-1.269v-.342h2.232Z" style="fill:#fff"/><line x1="200.814" y1="202.107" x2="245.465" y2="202.107" style="fill:none;stroke:#39b54a;stroke-miterlimit:10;stroke-width:5px"/><line x1="250.814" y1="202.107" x2="277.81" y2="202.107" style="fill:none;stroke:#39b54a;stroke-miterlimit:10;stroke-width:5px"/><line x1="283.544" y1="202.107" x2="319.557" y2="202.107" style="fill:none;stroke:#39b54a;stroke-miterlimit:10;stroke-width:5px"/><line x1="200.814" y1="214.107" x2="245.465" y2="214.107" style="fill:none;stroke:#39b54a;stroke-miterlimit:10;stroke-width:5px"/><line x1="250.814" y1="214.107" x2="277.81" y2="214.107" style="fill:none;stroke:#39b54a;stroke-miterlimit:10;stroke-width:5px"/><line x1="283.544" y1="214.107" x2="319.557" y2="214.107" style="fill:none;stroke:#39b54a;stroke-miterlimit:10;stroke-width:5px"/><line x1="200.814" y1="226.107" x2="245.465" y2="226.107" style="fill:none;stroke:#39b54a;stroke-miterlimit:10;stroke-width:5px"/><line x1="250.814" y1="226.107" x2="277.81" y2="226.107" style="fill:none;stroke:#39b54a;stroke-miterlimit:10;stroke-width:5px"/><line x1="283.544" y1="226.107" x2="319.557" y2="226.107" style="fill:none;stroke:#39b54a;stroke-miterlimit:10;stroke-width:5px"/><line x1="200.814" y1="238.107" x2="245.465" y2="238.107" style="fill:none;stroke:#39b54a;stroke-miterlimit:10;stroke-width:5px"/><line x1="250.814" y1="238.107" x2="277.81" y2="238.107" style="fill:none;stroke:#39b54a;stroke-miterlimit:10;stroke-width:5px"/><line x1="283.544" y1="238.107" x2="319.557" y2="238.107" style="fill:none;stroke:#39b54a;stroke-miterlimit:10;stroke-width:5px"/><line x1="200.814" y1="250.107" x2="245.465" y2="250.107" style="fill:none;stroke:#39b54a;stroke-miterlimit:10;stroke-width:5px"/><line x1="250.814" y1="250.107" x2="277.81" y2="250.107" style="fill:none;stroke:#39b54a;stroke-miterlimit:10;stroke-width:5px"/><line x1="283.544" y1="250.107" x2="319.557" y2="250.107" style="fill:none;stroke:#39b54a;stroke-miterlimit:10;stroke-width:5px"/><line x1="200.814" y1="262.107" x2="245.465" y2="262.107" style="fill:none;stroke:#39b54a;stroke-miterlimit:10;stroke-width:5px"/><line x1="250.814" y1="262.107" x2="277.81" y2="262.107" style="fill:none;stroke:#39b54a;stroke-miterlimit:10;stroke-width:5px"/><line x1="283.544" y1="262.107" x2="319.557" y2="262.107" style="fill:none;stroke:#39b54a;stroke-miterlimit:10;stroke-width:5px"/><rect x="217.139" y="215.908" width="87.551" height="32.943" rx="16.472" style="fill:#fff;opacity:0.9500000000000001"/><path d="M236.708,224.261a5.157,5.157,0,0,1,2.42.489,3.481,3.481,0,0,1,1.43,1.4,6.228,6.228,0,0,1,.69,2.19,20.665,20.665,0,0,1,.181,2.861,20.454,20.454,0,0,1-.23,3.27,6.275,6.275,0,0,1-.79,2.29,3.476,3.476,0,0,1-1.5,1.339,5.611,5.611,0,0,1-2.38.44h-4.54V224.261Zm-.56,12.159a2.466,2.466,0,0,0,1.22-.26,1.775,1.775,0,0,0,.73-.86,5,5,0,0,0,.36-1.579q.09-.981.091-2.44,0-1.221-.08-2.141a5.331,5.331,0,0,0-.33-1.53,1.909,1.909,0,0,0-.741-.92,2.429,2.429,0,0,0-1.309-.31h-1.221v10.04Z"/><path d="M243.228,230.82a3.63,3.63,0,0,1,.3-1.57,2.738,2.738,0,0,1,.809-1.02,3.249,3.249,0,0,1,1.2-.56,6.154,6.154,0,0,1,1.471-.17,6.786,6.786,0,0,1,2,.241,2.719,2.719,0,0,1,1.179.679,2.279,2.279,0,0,1,.571,1.051,5.6,5.6,0,0,1,.15,1.329v5.66a7.6,7.6,0,0,0,.069,1.18,4.139,4.139,0,0,0,.27.9h-2.64a2.308,2.308,0,0,1-.21-.549q-.071-.291-.13-.571h-.04a2.345,2.345,0,0,1-1.11,1.091,4.486,4.486,0,0,1-1.629.25,2.72,2.72,0,0,1-1.221-.25,2.059,2.059,0,0,1-.8-.691,3.041,3.041,0,0,1-.44-.99,4.368,4.368,0,0,1-.14-1.089,4.707,4.707,0,0,1,.16-1.31,2.519,2.519,0,0,1,.489-.94,2.682,2.682,0,0,1,.84-.651,6.732,6.732,0,0,1,1.23-.46l1.56-.42a1.67,1.67,0,0,0,.861-.44,1.231,1.231,0,0,0,.239-.819,1.476,1.476,0,0,0-.29-.971,1.221,1.221,0,0,0-.989-.35,1.181,1.181,0,0,0-.96.381,1.528,1.528,0,0,0-.321,1.02v.3h-2.48Zm4.44,2.691a4.045,4.045,0,0,1-.58.19,2.111,2.111,0,0,0-1.2.6,1.688,1.688,0,0,0-.36,1.14,2.182,2.182,0,0,0,.239,1.06.839.839,0,0,0,.8.44,2.007,2.007,0,0,0,.579-.09,1.613,1.613,0,0,0,.551-.29,1.517,1.517,0,0,0,.409-.52,1.673,1.673,0,0,0,.16-.759V233.16A2.474,2.474,0,0,1,247.668,233.511Z"/><path d="M256.228,224.7v3.08h1.6v1.879h-1.6v5.82a1.633,1.633,0,0,0,.19.91.921.921,0,0,0,.79.27c.107,0,.213,0,.32-.01s.207-.016.3-.03v1.92q-.46,0-.89.03t-.91.03a6.5,6.5,0,0,1-1.31-.109,1.335,1.335,0,0,1-.78-.441,1.9,1.9,0,0,1-.37-.869,7.656,7.656,0,0,1-.1-1.361v-6.16h-1.4v-1.879h1.4V224.7Z"/><path d="M258.768,230.82a3.645,3.645,0,0,1,.3-1.57,2.75,2.75,0,0,1,.81-1.02,3.241,3.241,0,0,1,1.2-.56,6.145,6.145,0,0,1,1.47-.17,6.786,6.786,0,0,1,2,.241,2.723,2.723,0,0,1,1.18.679,2.286,2.286,0,0,1,.57,1.051,5.551,5.551,0,0,1,.15,1.329v5.66a7.573,7.573,0,0,0,.07,1.18,4.139,4.139,0,0,0,.27.9h-2.64a2.308,2.308,0,0,1-.21-.549q-.07-.291-.13-.571h-.04a2.349,2.349,0,0,1-1.11,1.091,4.492,4.492,0,0,1-1.63.25,2.715,2.715,0,0,1-1.22-.25,2.062,2.062,0,0,1-.8-.691,3.084,3.084,0,0,1-.44-.99,4.368,4.368,0,0,1-.14-1.089,4.707,4.707,0,0,1,.16-1.31,2.521,2.521,0,0,1,.49-.94,2.671,2.671,0,0,1,.84-.651,6.7,6.7,0,0,1,1.23-.46l1.56-.42a1.662,1.662,0,0,0,.86-.44,1.226,1.226,0,0,0,.24-.819,1.482,1.482,0,0,0-.29-.971,1.224,1.224,0,0,0-.99-.35,1.182,1.182,0,0,0-.96.381,1.527,1.527,0,0,0-.32,1.02v.3h-2.48Zm4.44,2.691a4.127,4.127,0,0,1-.58.19,2.115,2.115,0,0,0-1.2.6,1.694,1.694,0,0,0-.36,1.14,2.182,2.182,0,0,0,.24,1.06.838.838,0,0,0,.8.44,2.013,2.013,0,0,0,.58-.09,1.609,1.609,0,0,0,.55-.29,1.52,1.52,0,0,0,.41-.52,1.673,1.673,0,0,0,.16-.759V233.16A2.493,2.493,0,0,1,263.208,233.511Z"/><path d="M270.428,235.38a1.673,1.673,0,0,0,.37,1.131,1.334,1.334,0,0,0,1.07.429,1.531,1.531,0,0,0,1.02-.32,1.184,1.184,0,0,0,.379-.96,1.009,1.009,0,0,0-.3-.79,2.348,2.348,0,0,0-.7-.43l-1.94-.7a3.686,3.686,0,0,1-1.719-1.131,2.91,2.91,0,0,1-.58-1.869,3.557,3.557,0,0,1,.219-1.25,2.637,2.637,0,0,1,.7-1.031,3.471,3.471,0,0,1,1.23-.7,5.533,5.533,0,0,1,1.81-.261,4.093,4.093,0,0,1,2.779.8,2.864,2.864,0,0,1,.9,2.26V231h-2.48a2.209,2.209,0,0,0-.27-1.23,1.077,1.077,0,0,0-.95-.39,1.49,1.49,0,0,0-.911.29,1.018,1.018,0,0,0-.389.87,1.141,1.141,0,0,0,.25.721,1.916,1.916,0,0,0,.95.539l1.66.56a3.761,3.761,0,0,1,1.84,1.151,3.112,3.112,0,0,1,.54,1.929,3.452,3.452,0,0,1-.3,1.491,2.922,2.922,0,0,1-.83,1.049,3.245,3.245,0,0,1-1.261.6,6.664,6.664,0,0,1-1.609.181,7.129,7.129,0,0,1-1.93-.221,2.791,2.791,0,0,1-1.22-.66,2.373,2.373,0,0,1-.63-1.07,5.129,5.129,0,0,1-.18-1.41v-.38h2.48Z"/><path d="M279.647,234.44a5.992,5.992,0,0,0,.071.93,3,3,0,0,0,.23.8,1.493,1.493,0,0,0,.42.56.984.984,0,0,0,.64.21,1.122,1.122,0,0,0,1.02-.5,3.692,3.692,0,0,0,.44-1.52h2.48a4.32,4.32,0,0,1-1,2.861,3.813,3.813,0,0,1-2.9.98,4.6,4.6,0,0,1-2.341-.5,3.1,3.1,0,0,1-1.239-1.321,5.188,5.188,0,0,1-.491-1.84q-.09-1.02-.089-2.04a14.017,14.017,0,0,1,.149-2.08,5.036,5.036,0,0,1,.6-1.779,3.255,3.255,0,0,1,1.29-1.241,4.672,4.672,0,0,1,2.239-.46,4.357,4.357,0,0,1,1.971.39,2.967,2.967,0,0,1,1.209,1.1,4.609,4.609,0,0,1,.6,1.719,14.545,14.545,0,0,1,.16,2.25v.62h-5.461Zm2.741-3.59a2.829,2.829,0,0,0-.21-.8,1.134,1.134,0,0,0-.42-.5,1.283,1.283,0,0,0-.69-.17,1.177,1.177,0,0,0-.691.19,1.374,1.374,0,0,0-.429.5,2.443,2.443,0,0,0-.23.691,4.148,4.148,0,0,0-.071.759v.42h2.821C282.454,231.527,282.428,231.164,282.388,230.85Z"/><path d="M289.907,224.7v3.08h1.6v1.879h-1.6v5.82a1.641,1.641,0,0,0,.19.91.921.921,0,0,0,.79.27c.107,0,.213,0,.32-.01s.207-.016.3-.03v1.92c-.306,0-.6.01-.889.03s-.591.03-.911.03a6.506,6.506,0,0,1-1.31-.109,1.329,1.329,0,0,1-.779-.441,1.889,1.889,0,0,1-.371-.869,7.656,7.656,0,0,1-.1-1.361v-6.16h-1.4v-1.879h1.4V224.7Z"/><circle cx="523.585" cy="118.627" r="91.318"/><path d="M575.173,166.832a5.529,5.529,0,0,1-5.528,5.527H514.378a5.529,5.529,0,0,1-5.528-5.527V157.62H477.532a5.527,5.527,0,0,1-5.527-5.526V74.718a5.528,5.528,0,0,1,5.527-5.527h62.637a5.528,5.528,0,0,1,5.527,5.527V93.6a11.137,11.137,0,0,1,2.072,1.612l23.49,23.489a15.255,15.255,0,0,1,3.915,9.442ZM530.958,78.4a1.894,1.894,0,0,0-1.842-1.842H488.585a1.894,1.894,0,0,0-1.842,1.842v3.685a1.894,1.894,0,0,0,1.842,1.842h40.531a1.894,1.894,0,0,0,1.842-1.842ZM567.8,164.99V128.144h-23.95a5.529,5.529,0,0,1-5.527-5.527V98.667H516.22V164.99Zm-4.894-44.215L545.7,103.561v17.214Z" style="fill:#fff"/><path d="M512.425,182.292v2.36h-5.1v3.36h4.8v2.36h-4.8v6.2h-2.88v-14.28Z" style="fill:#fff"/><path d="M513.085,188.752a4.713,4.713,0,0,1,.72-1.77,3.2,3.2,0,0,1,1.31-1.08,4.787,4.787,0,0,1,1.99-.37,5.073,5.073,0,0,1,2.06.33,2.9,2.9,0,0,1,1.3,1.07,4.789,4.789,0,0,1,.679,1.78,13.545,13.545,0,0,1,.2,2.48,12.061,12.061,0,0,1-.221,2.44,4.707,4.707,0,0,1-.72,1.77,2.981,2.981,0,0,1-1.309,1.05,5.153,5.153,0,0,1-1.991.34,5.32,5.32,0,0,1-2.059-.31,2.788,2.788,0,0,1-1.3-1.04,4.7,4.7,0,0,1-.68-1.78,13.5,13.5,0,0,1-.2-2.47A12.073,12.073,0,0,1,513.085,188.752Zm2.58,3.96a5.332,5.332,0,0,0,.19,1.2,1.712,1.712,0,0,0,.45.78,1.126,1.126,0,0,0,.8.28,1.169,1.169,0,0,0,1.16-.88,13.3,13.3,0,0,0,0-5.8,1.169,1.169,0,0,0-1.16-.88,1.131,1.131,0,0,0-.8.28,1.717,1.717,0,0,0-.45.78,5.341,5.341,0,0,0-.19,1.2q-.039.7-.04,1.52T515.665,192.712Z" style="fill:#fff"/><path d="M525.465,185.812v1.44h.04a3.923,3.923,0,0,1,1.02-1.25,2.3,2.3,0,0,1,1.46-.47c.08,0,.163,0,.25.01s.17.017.25.03v2.64c-.147-.013-.29-.023-.43-.03s-.284-.01-.43-.01a2.666,2.666,0,0,0-.72.1,1.932,1.932,0,0,0-.66.33,1.667,1.667,0,0,0-.481.6,2.085,2.085,0,0,0-.179.91v6.46h-2.76v-10.76Z" style="fill:#fff"/><path d="M532.125,185.812v1.1h.04a3.173,3.173,0,0,1,1.17-1.06,3.48,3.48,0,0,1,1.55-.32,2.811,2.811,0,0,1,1.61.44,2.128,2.128,0,0,1,.87,1.28h.04a2.45,2.45,0,0,1,1.03-1.29,3.207,3.207,0,0,1,1.69-.43,2.419,2.419,0,0,1,2.03.83,3.809,3.809,0,0,1,.65,2.39v7.82h-2.76v-7.52a1.813,1.813,0,0,0-.25-1.04.939.939,0,0,0-.83-.36,1.334,1.334,0,0,0-1.05.44,2.079,2.079,0,0,0-.39,1.4v7.08h-2.76v-7.52a1.821,1.821,0,0,0-.25-1.04.939.939,0,0,0-.83-.36,1.334,1.334,0,0,0-1.05.44,2.079,2.079,0,0,0-.39,1.4v7.08h-2.76v-10.76Z" style="fill:#fff"/><path d="M550.606,334.018a8.886,8.886,0,0,1-8.824,8.825h-35.3a8.886,8.886,0,0,1-8.824-8.825V263.425a8.886,8.886,0,0,1,8.824-8.825h35.3a8.886,8.886,0,0,1,8.824,8.825Zm-6.618-59.563a2.268,2.268,0,0,0-2.206-2.206h-35.3a2.268,2.268,0,0,0-2.206,2.206v48.533a2.268,2.268,0,0,0,2.206,2.206h35.3a2.268,2.268,0,0,0,2.206-2.206Zm-14.34-11.03H518.619a1.1,1.1,0,1,0,0,2.206h11.029a1.1,1.1,0,1,0,0-2.206ZM524.134,328.5a5.516,5.516,0,1,0,5.514,5.515A5.531,5.531,0,0,0,524.134,328.5Z"/><rect x="194.895" y="288.63" width="132.953" height="74.645" rx="8.943" style="fill:#f2f2f2;stroke:gray;stroke-miterlimit:10;stroke-width:2px"/><path d="M230.966,349.636a23.895,23.895,0,1,1,23.895-23.894A23.9,23.9,0,0,1,230.966,349.636ZM246.46,319.27l-2.831-2.8a1.954,1.954,0,0,0-2.8,0l-12.694,12.663L221.1,322.1a1.954,1.954,0,0,0-2.8,0l-2.831,2.8a2.019,2.019,0,0,0-.56,1.431,1.948,1.948,0,0,0,.56,1.4L226.735,339a1.988,1.988,0,0,0,2.831,0L246.46,322.1a1.946,1.946,0,0,0,.56-1.4A2.019,2.019,0,0,0,246.46,319.27Z" style="fill:#009245"/><path d="M291.952,349.636a23.895,23.895,0,1,1,23.895-23.894A23.9,23.9,0,0,1,291.952,349.636Zm11.263-18.263-5.631-5.631,5.631-5.632a1.976,1.976,0,0,0,.591-1.4,2.048,2.048,0,0,0-.591-1.431l-2.8-2.8a2.048,2.048,0,0,0-1.431-.591,1.976,1.976,0,0,0-1.4.591l-5.632,5.631-5.631-5.631a1.976,1.976,0,0,0-1.4-.591,2.048,2.048,0,0,0-1.431.591l-2.8,2.8a2.049,2.049,0,0,0-.592,1.431,1.977,1.977,0,0,0,.592,1.4l5.631,5.632-5.631,5.631a1.977,1.977,0,0,0-.592,1.4,2.049,2.049,0,0,0,.592,1.431l2.8,2.8a2.049,2.049,0,0,0,1.431.592,1.977,1.977,0,0,0,1.4-.592l5.631-5.631L297.584,337a1.977,1.977,0,0,0,1.4.592,2.049,2.049,0,0,0,1.431-.592l2.8-2.8a2.048,2.048,0,0,0,.591-1.431A1.976,1.976,0,0,0,303.215,331.373Z" style="fill:#c1272d"/><path d="M407.068,181.474a13.415,13.415,0,1,1,13.415-13.415A13.43,13.43,0,0,1,407.068,181.474Z" style="fill:#0071bc"/><path d="M407.068,155.644a12.415,12.415,0,1,1-12.415,12.415,12.415,12.415,0,0,1,12.415-12.415m0-2a14.415,14.415,0,1,0,14.415,14.415,14.431,14.431,0,0,0-14.415-14.415Z" style="fill:#fff"/><path d="M404.6,176.2l2.112-9.988h-3.762l.506-2.354a11.919,11.919,0,0,0,1.617-.187,4.96,4.96,0,0,0,1.408-.485,4.5,4.5,0,0,0,1.188-.912,5.524,5.524,0,0,0,.957-1.474h2.551l-3.255,15.4Z" style="fill:#fff"/><path d="M197.763,376.691a13.416,13.416,0,1,1,13.415-13.416A13.43,13.43,0,0,1,197.763,376.691Z" style="fill:#0071bc"/><path d="M197.763,350.86a12.416,12.416,0,1,1-12.415,12.415,12.415,12.415,0,0,1,12.415-12.415m0-2a14.416,14.416,0,1,0,14.415,14.415,14.431,14.431,0,0,0-14.415-14.415Z" style="fill:#fff"/><path d="M194.754,356.515a6.092,6.092,0,0,1,4.312-1.529,6.921,6.921,0,0,1,1.98.275,4.68,4.68,0,0,1,1.628.847,4.014,4.014,0,0,1,1.111,1.452,4.891,4.891,0,0,1,.407,2.068,4.156,4.156,0,0,1-.484,2.013,6.265,6.265,0,0,1-1.254,1.606,10.805,10.805,0,0,1-1.749,1.309q-.98.594-1.947,1.155t-1.848,1.111a7.256,7.256,0,0,0-1.474,1.188h7.59l-.616,2.684h-11.4a6.149,6.149,0,0,1,.638-2.486,6.874,6.874,0,0,1,1.408-1.859A11.111,11.111,0,0,1,195,364.908q1.077-.638,2.2-1.232.571-.33,1.243-.682a8.444,8.444,0,0,0,1.254-.8,4.6,4.6,0,0,0,.979-1.023,2.3,2.3,0,0,0,.4-1.342,1.9,1.9,0,0,0-.693-1.661,2.82,2.82,0,0,0-1.683-.5,2.6,2.6,0,0,0-1.155.253,2.625,2.625,0,0,0-.88.693,3.424,3.424,0,0,0-.572,1.012,3.861,3.861,0,0,0-.231,1.21h-2.97A6.317,6.317,0,0,1,194.754,356.515Z" style="fill:#fff"/><path d="M115.289,275.522a13.415,13.415,0,1,1,13.416-13.415A13.43,13.43,0,0,1,115.289,275.522Z" style="fill:#0071bc"/><path d="M115.289,249.692a12.415,12.415,0,1,1-12.415,12.415,12.415,12.415,0,0,1,12.415-12.415m0-2a14.415,14.415,0,1,0,14.416,14.415,14.431,14.431,0,0,0-14.416-14.415Z" style="fill:#fff"/><path d="M115.558,260.52a6.05,6.05,0,0,0,1.023-.088,3.045,3.045,0,0,0,.946-.319,2,2,0,0,0,.7-.627,1.737,1.737,0,0,0,.275-1.012,1.9,1.9,0,0,0-.176-.858,1.873,1.873,0,0,0-.462-.594,1.8,1.8,0,0,0-.671-.352,2.921,2.921,0,0,0-.8-.11,2.728,2.728,0,0,0-1.991.66,3.865,3.865,0,0,0-.957,1.98h-2.97a5.583,5.583,0,0,1,5.962-5.214,8.229,8.229,0,0,1,1.837.209,4.917,4.917,0,0,1,1.628.682,3.553,3.553,0,0,1,1.617,3.135,3.448,3.448,0,0,1-.814,2.332,3.649,3.649,0,0,1-2.09,1.21v.044a2.863,2.863,0,0,1,1.672,1.166,3.734,3.734,0,0,1,.484,1.98,5.116,5.116,0,0,1-.506,2.354,4.551,4.551,0,0,1-1.375,1.628,5.984,5.984,0,0,1-2.013.946,9.367,9.367,0,0,1-2.442.308,5.6,5.6,0,0,1-4.191-1.4,5.266,5.266,0,0,1-1.177-4.169h2.948a2.922,2.922,0,0,0,.484,2.2,2.413,2.413,0,0,0,2.024.814,3.158,3.158,0,0,0,2.112-.726,2.559,2.559,0,0,0,.858-2.068,1.68,1.68,0,0,0-.627-1.463,2.591,2.591,0,0,0-1.551-.451h-1.122l.418-2.2Z" style="fill:#fff"/><path d="M152.647,184.852a13.415,13.415,0,1,1,13.416-13.415A13.43,13.43,0,0,1,152.647,184.852Z" style="fill:#0071bc"/><path d="M152.648,159.022a12.415,12.415,0,1,1-12.416,12.415,12.415,12.415,0,0,1,12.416-12.415m0-2a14.415,14.415,0,1,0,14.415,14.415,14.431,14.431,0,0,0-14.415-14.415Z" style="fill:#fff"/><path d="M158.724,172.886l-.549,2.574h-2.046l-.77,3.564h-2.97l.77-3.564h-7.128l.571-2.838,9-9h3.037l-1.958,9.262Zm-3.761-5.918h-.044l-5.786,5.918h4.576Z" style="fill:#fff"/></svg>